<svg width="296" height="141" viewBox="0 0 296 141" fill="none" xmlns="http://www.w3.org/2000/svg">
<g clip-path="url(#clip0)">
<path d="M3.62553 0C3.94079 1.26174 4.88658 1.89262 5.83237 2.83893C9.14264 6.15101 12.4529 9.46309 15.7632 12.6174C17.0242 13.8792 18.6005 14.8255 20.0192 15.9295C26.955 21.2919 33.7332 26.9698 40.8266 32.0168C46.9742 36.4329 53.5948 40.0604 60.5306 43.3725C65.89 45.896 71.2495 48.4195 76.7666 50.6275C84.1753 53.4664 91.584 55.9899 99.1503 58.0403C105.928 59.7752 112.707 61.1946 119.642 62.1409C123.11 62.6141 126.421 62.9295 129.889 63.0872C132.884 63.4027 135.721 63.8758 138.716 63.8758C147.701 63.8758 156.686 64.0336 165.513 63.7181C169.769 63.5604 174.025 62.9295 178.281 62.2987C182.853 61.6678 187.266 60.5638 191.838 59.4597C196.251 58.198 200.508 56.3054 204.606 54.255C205.236 53.9396 205.709 53.3087 206.182 52.8356C205.394 47.1577 204.921 41.7953 206.182 36.2752C206.34 35.4866 206.34 34.8557 206.34 34.0671C206.813 27.9161 209.02 22.5537 212.645 17.6644C214.694 14.9832 217.216 13.0906 220.527 12.1443C223.679 11.3557 226.359 11.5134 228.881 13.8792C229.354 14.3523 229.827 14.5101 230.3 14.8255C230.615 15.2987 230.93 15.9295 231.246 16.4027C234.556 21.9228 233.61 27.443 231.561 33.1208C230.773 35.3289 229.827 37.5369 228.566 39.5872C227.147 41.953 225.413 44.3188 223.522 46.3691C220.527 49.3658 217.689 52.6779 213.906 55.0436C213.433 55.3591 212.96 55.6745 212.645 55.9899C212.645 58.9866 213.591 61.3523 214.537 63.7181C216.428 68.6074 218.95 73.1812 221.945 77.4396C226.359 83.906 231.246 90.2148 237.393 95.2617C241.807 98.8893 246.221 102.359 250.95 105.513C257.413 109.772 264.033 113.715 270.811 117.5C276.644 120.654 282.791 123.336 289.254 125.544C297.136 128.225 305.175 130.117 313.372 131.537C314.948 131.852 316.682 132.01 318.258 132.483C320.465 133.114 322.672 133.114 324.879 133.43C326.928 133.745 328.977 133.903 331.027 134.218C335.125 135.007 339.381 134.534 343.479 135.164C350.1 136.111 356.563 135.638 363.183 135.953C369.646 136.268 375.952 135.953 382.414 135.795C388.72 135.638 395.183 135.322 401.488 134.849C404.483 134.534 407.478 134.218 410.315 134.06C410.315 135.795 410.315 137.688 410.315 139.423C408.739 139.581 407.005 139.738 405.429 139.896C404.01 140.054 402.434 140.054 401.015 140.211C397.547 140.369 394.237 140.211 390.927 140.842C390.611 140.842 390.296 141 389.981 141C386.198 140.369 382.257 141.315 378.474 141.158C374.533 141.158 370.75 141.315 366.809 141.158C360.977 141 354.987 140.685 349.154 140.527C346.632 140.527 344.268 140.054 341.745 140.211C339.539 140.211 337.332 139.423 335.125 140.054C333.076 139.265 331.027 139.423 328.977 139.265C326.77 139.107 324.564 138.634 322.357 138.319C314.475 137.057 306.594 135.164 298.712 133.587C292.407 132.168 286.417 130.117 280.584 127.594C276.013 125.701 271.599 123.651 267.343 121.285C259.777 117.185 252.368 112.611 245.275 107.879C242.753 106.302 240.231 104.567 238.181 102.517C235.975 100.466 233.453 99.047 231.403 96.8389C230.615 96.0503 229.827 95.104 229.039 94.1577C228.566 93.5268 228.251 92.896 227.62 92.4228C224.783 90.057 222.734 87.2181 220.684 84.3792C217.059 79.4899 213.749 74.2852 211.384 68.6074C210.123 65.7685 209.177 62.7718 208.074 59.9329C207.443 59.302 206.813 59.4597 206.025 59.6174C203.66 60.0906 201.611 61.5101 199.562 62.4564C195.936 64.0336 192.311 64.9799 188.527 65.7685C180.646 67.5033 172.764 68.4497 164.725 68.6074C162.203 68.6074 159.839 69.5537 157.159 69.0805C156.844 69.0805 156.528 69.2383 156.213 69.2383C153.06 68.1342 149.75 69.2383 146.597 68.9228C143.287 68.6074 139.977 68.6074 136.824 68.6074C132.411 68.6074 127.997 67.8188 123.583 67.3456C119.327 66.8725 115.071 66.3993 110.815 65.2953C107.19 64.349 103.406 64.0336 99.9385 63.0872C94.7366 61.5101 89.3772 60.0906 84.1753 58.198C81.0227 57.094 77.7124 55.9899 74.7174 54.255C74.4022 54.0973 74.2445 53.9396 73.9293 53.7819C68.7274 52.3624 64.3137 49.208 59.2695 47.1577C54.0677 44.9497 49.1811 41.953 44.4521 38.9564C39.8808 36.1174 35.6248 32.9631 31.3687 29.651C26.6398 26.0235 22.3837 21.9228 17.6547 18.2953C12.1376 14.0369 7.88158 9.14765 3.4679 4.57383C2.04921 3.31208 1.10342 1.57718 0 0C1.26105 0 2.36448 0 3.62553 0ZM221.315 17.1913C216.744 19.2416 214.379 23.3423 212.96 27.9161C211.699 32.1745 210.438 36.4329 210.754 41.0067C210.754 41.6376 210.596 42.1107 210.596 42.7416C210.438 45.5805 210.596 47.3154 211.699 49.8389C212.645 49.208 213.433 48.7349 214.221 48.104C218.635 44.3188 222.576 40.0604 225.256 34.698C226.99 31.3859 228.093 27.9161 228.251 24.1309C228.251 21.9228 228.093 20.0302 226.674 18.2953C225.098 17.0336 223.364 16.8758 221.315 17.1913Z" fill="#E8D2B3"/>
</g>
<defs>
<clipPath id="clip0">
<rect width="410" height="141" fill="white"/>
</clipPath>
</defs>
</svg>
