<svg width="132" height="146" viewBox="0 0 132 146" fill="none" xmlns="http://www.w3.org/2000/svg">
<path d="M49.5167 27.3008C48.4276 26.5021 48.5002 25.6308 48.5728 24.6869C49.1537 23.743 49.9524 23.38 50.8237 23.2347C51.6224 23.4526 51.9128 24.1061 52.2758 24.4691C52.8567 24.7595 53.2197 24.9047 53.728 25.1226C53.8006 25.7034 53.9458 26.2117 54.0184 26.7926C53.6554 27.3008 53.365 27.7365 53.0019 28.2447C53.2197 28.39 53.4376 28.5352 53.6554 28.753C53.6554 29.116 53.6554 29.4065 53.6554 29.6969C53.1471 30.2778 52.8567 30.2052 51.9854 29.4791C52.058 29.116 52.2032 28.753 52.2758 28.3173C51.4045 27.8817 50.5332 27.3008 49.5167 27.3008Z" fill="#E8D2B3"/>
<path d="M14.8098 118.933C13.5755 119.514 12.7042 119.005 11.9055 118.424C11.5425 118.424 11.1068 118.497 10.5985 118.497C10.3807 118.134 10.1629 117.844 9.94507 117.408C10.2355 117.045 10.4533 116.537 10.7438 116.537C11.5425 116.464 11.9055 115.883 12.4138 115.52C13.2125 115.375 13.9385 115.302 14.592 115.52C15.3907 116.174 15.5359 117.045 15.3907 117.989C15.2455 118.279 15.0277 118.642 14.8098 118.933Z" fill="#E8D2B3"/>
<path d="M30.7837 22.7265C29.985 22.0731 29.1863 21.5648 28.7506 20.7661C28.5328 19.677 28.8232 18.8057 29.8398 18.2248C30.0576 18.2248 30.2754 18.0796 30.5658 18.0796C31.0015 18.0796 31.3645 18.0796 31.655 18.1522C32.4537 18.5878 32.8167 19.0961 32.8893 19.8222C32.8893 20.4757 32.6715 21.0565 32.2358 21.4922C31.8002 21.9278 31.2919 22.2909 30.7837 22.7265Z" fill="#E8D2B3"/>
<path d="M57.2132 69.9946C57.1406 68.9781 57.1406 68.1794 57.068 67.3081C57.2858 67.2355 57.5036 67.0177 57.5763 67.0903C58.8106 67.5259 60.0449 67.6712 61.2067 68.3973C61.4245 69.4138 60.9889 70.2125 60.3354 71.0112C59.5367 71.8825 58.2297 71.7372 57.5036 70.7207C57.431 70.5755 57.3584 70.5029 57.2858 70.3577C57.2858 70.2851 57.2132 70.1399 57.2132 69.9946Z" fill="#E8D2B3"/>
<path d="M19.8925 130.187C20.0377 129.243 20.4733 128.517 21.3446 127.936C21.6351 127.936 22.0707 127.864 22.4338 127.864C23.3777 128.372 23.3777 128.372 23.9585 129.388C24.1037 130.042 23.8859 130.623 23.5229 131.276C23.1598 131.567 22.6516 131.93 22.1433 132.293C20.9816 132.002 20.0377 131.494 19.8925 130.187Z" fill="#E8D2B3"/>
<path d="M28.7506 13.4325C28.9684 12.8517 29.1137 12.416 29.1863 12.053C29.8397 11.2543 30.5658 10.8186 31.6549 11.1091C32.381 11.6173 32.8167 12.3434 32.8893 13.2147C32.6715 13.8682 32.381 14.3765 31.8002 14.7395C31.3645 15.0299 30.8563 15.3204 30.2754 15.1752C29.5493 14.8121 29.2589 14.1586 28.7506 13.4325Z" fill="#E8D2B3"/>
<path d="M41.6024 63.5324C40.9489 63.242 40.4406 62.9516 40.005 62.7337C39.3515 61.572 39.7872 60.5555 39.5693 59.6116C40.2954 59.1033 40.9489 59.4664 41.6024 59.2485C42.1106 59.6116 42.6189 59.9746 43.1272 60.3377C43.708 61.8624 43.0545 62.7337 41.6024 63.5324Z" fill="#E8D2B3"/>
<path d="M43.1271 56.8524C43.4901 56.925 43.8531 56.9977 44.2888 56.9977C44.5792 56.3442 44.6518 55.6181 45.2327 55.1098C45.741 54.8194 46.2492 54.8194 46.7575 55.0372C47.2657 55.2551 47.6288 55.6907 47.7014 56.3442C47.6288 56.4894 47.6288 56.7072 47.5562 56.8524C47.3383 57.1429 47.1205 57.3607 46.9753 57.5785C46.1766 57.9416 45.5231 57.7963 44.797 57.5785C44.5066 58.0142 44.7244 58.8129 43.6353 59.1759C43.6353 59.1759 43.1997 59.1759 42.764 59.1759C42.6188 58.8129 42.4736 58.5224 42.4736 58.232C42.3284 57.5785 42.4736 57.1429 43.1271 56.8524Z" fill="#E8D2B3"/>
<path d="M49.5893 68.615C50.0249 68.6876 50.4606 68.7602 50.751 68.8328C50.9689 69.3411 50.751 69.5589 50.388 69.7767C50.1702 69.7041 49.9523 69.7041 49.6619 69.6315C49.5167 69.7041 49.4441 69.7041 49.2989 69.7767C48.4276 70.5028 48.4276 70.5028 47.1932 70.5028C46.3945 70.1398 45.8863 69.4137 45.5958 68.615C45.5958 68.1794 45.8863 67.9615 46.2493 67.8163C46.685 67.5985 47.1206 67.4533 47.5563 67.2354C48.5728 67.1628 49.081 67.9615 49.5893 68.615Z" fill="#E8D2B3"/>
<path d="M32.3085 92.3579C32.0181 92.721 31.7277 93.2292 31.4372 93.6649C30.0577 94.1005 29.4042 93.3745 28.6781 92.4305C28.7507 91.6319 28.8959 90.9058 29.622 90.1797C29.9851 90.1071 30.4207 89.9619 30.8564 89.8167C32.0181 90.2523 32.3811 91.051 32.3085 92.3579Z" fill="#E8D2B3"/>
<path d="M62.2958 86.1863C62.5862 85.8232 62.804 85.3876 63.0945 85.0245C63.8206 84.8793 64.474 84.8067 65.2001 85.2424C65.781 85.8232 66.0714 86.5493 65.9262 87.5658C65.7084 87.7837 65.4905 88.1467 65.1275 88.3645C64.1836 88.9454 63.1671 88.5824 62.7314 87.6384C62.5136 87.2028 62.441 86.6945 62.2958 86.1863Z" fill="#E8D2B3"/>
<path d="M56.3418 64.6942C55.6884 64.7668 55.0349 64.7668 54.5992 64.7668C54.1636 64.4764 53.8005 64.1859 53.7279 64.1133C53.4375 63.0968 53.7279 62.4433 54.2362 61.9351C55.0349 61.209 55.8336 61.4268 56.7775 61.9351C56.9227 62.1529 57.1405 62.4433 57.2857 62.6611C57.2131 63.4598 56.9953 64.0407 56.3418 64.6942Z" fill="#E8D2B3"/>
<path d="M51.2592 44.3637C51.4045 44.7268 51.5497 45.0172 51.6223 45.1624C51.4045 45.8885 50.9688 46.1063 50.3153 45.8885C49.6619 45.235 50.0975 44.6542 50.6058 44.2185C50.751 43.6376 50.4605 42.9842 51.114 42.5485C51.4045 42.3307 51.4771 41.7498 51.6949 41.3142C52.1305 40.9511 52.6388 40.8059 53.2197 41.0237C53.6553 41.6046 54.1636 42.1855 53.8731 43.1294C53.6553 43.3472 53.3649 43.565 53.0744 43.8555C52.6388 43.7103 52.2758 43.6376 51.8401 43.4924C51.6949 43.7103 51.4771 44.0007 51.2592 44.3637Z" fill="#E8D2B3"/>
<path d="M65.7084 72.2454C65.9989 72.4632 66.1441 72.5359 66.3619 72.7537C66.3619 73.1167 66.4345 73.4798 66.4345 73.988C66.2893 74.1332 66.1441 74.2785 65.9989 74.3511C65.4906 74.6415 65.418 74.6415 64.2563 74.4963C63.8932 73.988 64.0384 73.4798 64.0384 72.9715C64.2563 72.6811 64.4015 72.5359 64.6193 72.318C64.4015 71.8824 64.1837 71.4467 64.0384 71.0837C64.1111 70.3576 64.5467 70.0672 64.9824 69.7767C65.8537 69.7767 65.9989 70.4302 66.2167 70.9385C65.9989 71.3015 65.8537 71.7372 65.7084 72.2454Z" fill="#E8D2B3"/>
<path d="M15.0276 22.6538C15.2454 22.799 15.4632 22.8716 15.6811 23.0169C15.5358 23.8882 15.3906 24.6868 15.2454 25.5581C14.8824 26.139 14.4467 26.5747 13.5754 26.3568C13.3576 26.2116 12.9945 25.9212 12.7041 25.7034C12.4137 25.0499 12.4137 24.469 12.5589 23.8882C12.9219 23.5251 13.285 23.3799 13.7932 23.3799C14.2289 23.3799 14.6645 22.9442 15.0276 22.6538Z" fill="#E8D2B3"/>
<path d="M12.4138 33.0369C12.7769 33.2547 12.9947 33.3999 13.1399 33.5451C13.5029 34.489 13.2851 35.2877 12.4864 35.9412C11.9056 35.9412 11.1795 36.0138 10.4534 36.0864C10.2356 35.9412 9.94512 35.7234 9.72729 35.5056C9.72729 35.1425 9.7999 34.7795 9.7999 34.489C10.6712 34.0534 11.4699 33.5451 12.4138 33.0369Z" fill="#E8D2B3"/>
<path d="M75.0748 41.6772C75.1474 40.4429 76.0187 40.225 76.89 40.0072C77.9066 40.3702 78.56 40.9511 78.3422 42.1128C78.0518 42.6937 77.6161 43.0568 76.9626 43.2746C76.8174 43.202 76.5996 43.202 76.3818 43.1294C75.8735 42.8389 75.4379 42.3307 75.0748 41.6772Z" fill="#E8D2B3"/>
<path d="M70.6458 72.3181C70.791 72.0277 70.8636 71.7372 71.0088 71.4468C71.2266 71.3742 71.5171 71.3016 71.8801 71.1564C72.461 71.5194 73.1144 71.9551 73.6953 72.3181C74.131 73.4072 73.6227 73.9881 72.824 74.569C72.3157 74.4238 71.8075 74.2059 71.2992 74.0607C71.0814 73.4798 70.8636 72.9716 70.6458 72.3181Z" fill="#E8D2B3"/>
<path d="M28.2424 68.6876C28.5329 67.9616 28.8959 67.2355 29.1863 66.5094C29.6946 66.0737 30.2755 66.0737 31.0742 66.1463C31.2194 66.2916 31.5098 66.582 31.7276 66.7998C31.5098 67.2355 31.3646 67.5985 31.2194 67.8889C30.8563 68.1068 30.4207 68.252 30.1303 68.4698C29.8398 68.6876 29.622 69.0507 29.4042 69.3411C28.6781 69.2685 28.6781 69.2685 28.2424 68.6876Z" fill="#E8D2B3"/>
<path d="M74.7118 35.5781C75.1474 35.7233 75.5105 35.8686 75.8735 36.0138C76.0187 36.3042 76.1639 36.522 76.3092 36.8851C76.1639 37.3207 75.9461 37.829 75.7283 38.2646C74.857 38.6277 74.0583 38.6277 73.2596 37.9016C73.2596 37.6112 73.187 37.1755 73.1144 36.8851C73.4774 36.159 73.9131 35.7233 74.7118 35.5781Z" fill="#E8D2B3"/>
<path d="M54.5267 70.5029C53.9459 69.9946 53.9459 69.9946 53.728 69.3411C53.9459 68.9781 54.1637 68.615 54.4541 68.1794C54.3815 67.8163 54.2363 67.3807 54.1637 67.0176C54.2363 66.5094 54.3089 66.0011 55.1076 66.0737C55.5432 66.6546 56.0515 67.2355 56.6324 67.9616C56.1967 68.9055 55.398 69.6315 54.5267 70.5029Z" fill="#E8D2B3"/>
<path d="M59.8271 28.9708C59.6819 29.1886 59.4641 29.4064 59.1736 29.6969C59.101 30.2777 59.101 30.9312 59.0284 31.6573C58.8106 31.6573 58.5202 31.8025 58.4476 31.7299C57.8667 31.0764 57.2858 30.4229 56.705 29.7695C56.8502 29.4064 56.9954 29.116 57.1406 28.753C57.5763 28.6804 57.9393 28.753 58.3023 28.6077C58.5928 28.5351 58.8832 28.2447 59.101 28.0995C59.7545 28.1721 59.8997 28.5351 59.8271 28.9708Z" fill="#E8D2B3"/>
<path d="M30.2754 44.6542C30.6385 44.7994 30.9289 44.9446 31.3645 45.0898C31.3645 45.5981 31.4371 46.179 31.4371 46.8324C31.1467 47.1229 30.7837 47.4859 30.4932 47.7763C29.5493 47.7763 29.1137 47.3407 28.8232 46.542C28.9685 45.7433 29.3315 44.9446 30.2754 44.6542Z" fill="#E8D2B3"/>
<path d="M38.3349 103.83C38.1171 104.629 37.8993 105.21 37.3184 105.718C37.1732 105.791 36.9554 105.863 36.8102 105.863C36.5923 105.863 36.4471 105.863 36.2293 105.791C35.7936 105.282 35.5758 104.774 35.5758 104.048C35.7936 103.758 36.0841 103.395 36.3745 103.031C37.1732 102.814 37.8267 102.959 38.3349 103.83Z" fill="#E8D2B3"/>
<path d="M34.1238 123.797C34.1238 123.144 34.0511 122.781 34.0511 122.418C34.5594 121.547 35.2855 121.547 36.0842 121.764C36.5198 122.2 36.8829 122.636 36.8103 123.507C36.5198 123.797 36.0842 124.161 35.6485 124.524C35.1403 124.306 34.7046 124.088 34.1238 123.797Z" fill="#E8D2B3"/>
<path d="M77.5436 81.6846C77.0353 81.4667 76.5996 81.2489 76.164 81.0311C76.0914 80.5228 76.0188 80.0872 75.9462 79.7967C76.2366 79.2159 76.5996 78.9254 77.1079 78.8528C77.834 78.7802 78.2696 79.1433 78.7053 79.7241C79.0683 80.8133 78.4149 81.2489 77.5436 81.6846Z" fill="#E8D2B3"/>
<path d="M66.9427 28.9708C67.0153 29.6243 67.088 29.8421 67.088 30.06C67.1606 30.2778 67.2332 30.5682 67.3058 30.7134C67.0153 31.1491 66.5071 31.1491 66.5071 31.7299C66.5071 32.0204 66.2167 32.456 65.9988 32.5286C65.2727 32.7465 64.7645 33.2547 64.111 33.6178C63.6027 32.8917 63.6027 32.8917 64.3288 32.3108C64.4014 31.9478 64.474 31.5847 64.6193 31.0765C64.9823 30.9312 65.418 30.7134 65.9988 30.4956C66.2893 30.2052 66.5071 29.7695 66.9427 28.9708Z" fill="#E8D2B3"/>
<path d="M67.0879 59.0307C66.5797 58.0142 66.144 57.0703 65.6357 56.0538C65.781 55.9085 65.9262 55.6907 66.144 55.4003C66.4344 55.5455 66.7249 55.6907 67.0879 55.8359C67.0153 56.3442 66.9427 56.7798 66.8701 57.2155C67.0153 57.2155 67.1605 57.2881 67.2331 57.2881C67.7414 56.9977 68.2496 56.9977 68.8305 57.5059C68.8305 57.869 68.9031 58.3046 68.9031 58.6677C68.3949 59.1759 67.814 59.0307 67.0879 59.0307Z" fill="#E8D2B3"/>
<path d="M16.988 15.5382C16.6976 15.393 16.3345 15.2478 15.9715 15.1026C15.5359 14.5217 15.4632 13.5052 15.8989 12.9969C16.3345 12.4887 16.8428 12.4887 17.8593 12.9969C18.295 14.5943 18.295 14.7395 16.988 15.5382Z" fill="#E8D2B3"/>
<path d="M2.32116 23.3799C2.61159 23.743 2.82942 24.0334 3.11985 24.3965C2.82942 24.9047 2.53899 25.3404 2.24855 25.776C1.74029 25.8486 1.30464 25.9212 0.868991 25.9212C-0.0749193 25.4856 -0.0749194 24.8321 0.0702976 24.0334C0.578557 23.3073 1.37725 23.3799 2.32116 23.3799Z" fill="#E8D2B3"/>
<path d="M62.2958 56.2716C62.441 55.9086 62.5136 55.6182 62.5862 55.2551C62.8766 55.1099 63.1671 54.8921 63.5301 54.7469C63.9658 54.6016 64.1836 54.8195 64.9097 55.4729C65.1275 56.0538 64.9823 56.5621 64.5466 57.0703C64.0384 57.2155 63.4575 57.3608 62.8766 57.506C62.7314 57.1429 62.5136 56.7073 62.2958 56.2716Z" fill="#E8D2B3"/>
<path d="M37.4637 28.8982C37.3185 29.3338 37.1733 29.6243 36.9554 29.9873C36.5924 30.0599 36.2293 30.1325 35.7937 30.2778C35.4307 29.9873 35.0676 29.6969 34.632 29.3338C34.632 28.8982 34.7046 28.5351 34.7046 28.0995C35.1402 27.8091 35.5759 27.5912 35.9389 27.3734C36.302 27.5186 36.5924 27.6638 36.8828 27.8091C37.1006 28.1721 37.2459 28.4625 37.4637 28.8982Z" fill="#E8D2B3"/>
<path d="M20.3281 142.966C20.9816 142.676 21.4172 142.821 21.8529 143.039C22.5064 143.474 22.7242 143.983 22.579 144.564C22.3611 145.362 21.8529 145.653 20.909 145.507C20.8364 145.507 20.7638 145.435 20.6185 145.362C20.1829 144.636 20.0377 143.837 20.3281 142.966Z" fill="#E8D2B3"/>
<path d="M31.4371 73.4072C31.2919 73.1168 31.1467 72.8263 31.0015 72.6085C31.0741 71.8098 31.5097 71.229 32.4536 71.0837C32.8167 71.3742 33.1797 71.6646 33.4702 71.8824C33.7606 72.7537 33.4702 73.262 33.0345 73.6976C32.5262 73.9881 32.0906 73.625 31.4371 73.4072Z" fill="#E8D2B3"/>
<path d="M58.0844 38.7003C58.8105 39.136 58.9557 39.6442 58.7379 40.2977C58.2296 40.9512 57.6488 41.0964 56.9227 40.4429C56.8501 40.2251 56.7775 39.8621 56.7775 39.5716C56.8501 39.2086 57.0679 38.8456 57.1405 38.4099C57.2131 38.1195 57.0679 37.7564 57.3583 37.3208C57.5036 37.3208 57.794 37.2482 57.9392 37.2482C58.5201 37.7564 58.3749 38.1921 58.0844 38.7003Z" fill="#E8D2B3"/>
<path d="M31.655 95.6253C31.655 96.061 31.7276 96.4966 31.7276 97.0049C31.3645 97.2953 31.0015 97.5858 30.7111 97.8762C30.0576 97.8762 29.6945 97.5858 29.4041 97.1501C28.9685 96.424 29.1863 95.7705 29.6946 95.1897C30.4932 94.8266 31.0741 95.1171 31.655 95.6253Z" fill="#E8D2B3"/>
<path d="M37.1006 88.0014C37.4636 87.8562 37.7541 87.711 38.1171 87.4932C38.4075 87.7836 38.7706 88.074 38.9158 88.3645C39.3515 89.018 39.2788 89.6714 38.7706 90.3249C38.4075 90.3975 37.9719 90.4701 37.4636 90.5427C37.1732 90.2523 36.9554 90.0345 36.7375 89.744C36.8828 89.2358 37.028 88.6549 37.1006 88.0014Z" fill="#E8D2B3"/>
<path d="M17.1332 15.9012C17.8593 16.3369 18.2224 16.6999 18.1497 17.426C18.0771 18.2247 17.4237 18.3699 16.9154 18.6604C16.1167 18.4425 15.6085 18.0069 15.3906 17.063C15.6811 16.4095 16.1893 15.9012 17.1332 15.9012Z" fill="#E8D2B3"/>
<path d="M10.8164 130.405C10.8164 130.768 10.889 131.058 10.889 131.494C10.5985 131.712 10.3081 132.002 10.0177 132.147C9.43681 132.365 9.29159 132.293 8.42029 131.494C8.42029 131.131 8.42029 130.768 8.42029 130.477C8.78333 129.897 9.14637 129.679 9.65463 129.679C10.1629 129.751 10.5259 129.969 10.8164 130.405Z" fill="#E8D2B3"/>
<path d="M52.058 73.1894C52.7115 72.3907 51.9854 71.4468 52.9293 71.1564C53.4376 71.3016 53.365 71.7372 53.365 72.1729C53.8733 72.4633 54.3089 72.7538 54.3089 73.4072C54.0911 73.9881 53.5828 74.2785 53.0746 74.2059C52.4211 74.1333 51.7676 74.7142 51.1141 73.9155C51.1867 73.3346 51.9128 73.262 52.058 73.1894Z" fill="#E8D2B3"/>
<path d="M51.8402 64.912C51.2593 64.4763 50.6785 64.0407 50.6785 63.242C50.8237 62.6611 51.2593 62.298 51.7676 62.1528C51.8402 62.1528 51.9128 62.1528 51.9854 62.1528C52.5663 62.298 53.2198 63.1693 53.1472 63.8954C53.0745 64.4037 52.7841 64.6941 51.8402 64.912Z" fill="#E8D2B3"/>
<path d="M41.9653 82.1927C42.1106 82.4832 42.3284 82.7736 42.401 82.9914C42.2558 83.7901 41.8201 84.1532 41.1666 84.371C40.4406 84.2258 39.8597 83.9353 39.7145 83.1366C39.7145 82.4832 40.1501 82.1927 40.5858 81.8297C40.731 81.8297 40.8762 81.7571 40.9488 81.7571C41.3119 81.9023 41.6023 82.0475 41.9653 82.1927Z" fill="#E8D2B3"/>
<path d="M39.2789 67.671C38.9884 67.671 38.6254 67.7436 38.2623 67.8163C37.9719 67.308 37.7541 66.8723 37.5363 66.5093C37.6089 65.8558 37.8267 65.4202 38.3349 65.275C38.9158 65.0571 39.4241 65.1297 39.7871 65.638C39.9323 66.5093 39.9323 66.5093 39.2789 67.671Z" fill="#E8D2B3"/>
<path d="M66.6523 33.0369C67.451 33.5451 67.451 33.5451 67.8141 34.4164C67.6688 34.7069 67.5236 35.0699 67.451 35.2877C66.8701 35.6508 66.4345 35.6508 65.9988 35.4329C65.781 35.2877 65.6358 35.0699 65.4906 34.7795C65.3454 34.3438 65.418 33.9082 65.7084 33.6177C65.9988 33.3999 66.3619 33.2547 66.6523 33.0369Z" fill="#E8D2B3"/>
<path d="M56.6323 50.3902C57.2858 49.9546 57.794 50.0272 58.2297 50.4628C58.8106 50.9711 58.8106 51.6246 58.5927 52.278C58.0845 52.6411 57.5762 52.7137 57.068 52.4959C56.4871 51.552 56.4871 51.552 56.6323 50.3902Z" fill="#E8D2B3"/>
<path d="M46.5397 38.9907C46.6849 38.2646 46.8301 37.6112 47.7014 37.4659C48.2823 37.4659 48.6453 37.829 49.081 38.4099C49.0084 38.6277 48.9358 38.9181 48.7905 39.3538C48.5001 39.499 48.1371 39.7168 47.8466 39.862C47.1932 39.7894 46.9027 39.499 46.5397 38.9907Z" fill="#E8D2B3"/>
<path d="M71.0088 79.0707C70.1375 79.3611 69.5566 79.2885 68.9032 78.7802C68.8305 78.5624 68.7579 78.272 68.7579 77.9816C69.121 77.3281 69.7018 77.1829 70.4279 77.1829C70.6458 77.3281 70.9362 77.5459 71.2266 77.7637C71.154 78.1994 71.0814 78.635 71.0088 79.0707Z" fill="#E8D2B3"/>
<path d="M53.8732 78.1267C54.4541 78.1267 55.1076 78.0541 55.6884 78.0541C56.1967 78.4171 55.9789 78.9254 56.0515 79.2884C55.8336 79.5789 55.6158 79.7967 55.398 80.0871C55.035 80.0871 54.6719 80.1597 54.3089 80.1597C54.091 79.9419 53.8732 79.7241 53.6554 79.5062C53.728 78.998 53.8732 78.5623 53.9458 78.0541L53.8732 78.1267Z" fill="#E8D2B3"/>
<path d="M55.2527 59.1758C55.3253 58.595 55.3979 58.0141 55.3979 57.5058C56.0514 57.288 55.9062 57.8689 56.1966 58.0141C56.3418 57.9415 56.487 57.9415 56.7049 57.8689C56.9953 58.0867 57.2857 58.3771 57.6488 58.7402C57.5036 59.1032 57.4309 59.321 57.2857 59.6115C56.5596 59.9019 55.9062 59.6841 55.2527 59.1758Z" fill="#E8D2B3"/>
<path d="M29.0411 36.159C28.9685 36.5947 28.8233 37.0303 28.7507 37.5386C28.315 37.466 27.8794 37.3934 27.3711 37.2481C27.1533 37.0303 26.9355 36.6673 26.7177 36.3768C26.9355 36.0138 27.0807 35.7234 27.2985 35.3603C27.7342 35.3603 28.0972 35.2877 28.5329 35.2877C28.6781 35.5055 28.8959 35.796 29.0411 36.159Z" fill="#E8D2B3"/>
<path d="M35.7937 126.702C36.665 126.92 36.8829 127.5 37.1007 128.081C36.9555 128.372 36.8102 128.662 36.665 128.88C35.6485 129.388 35.2129 128.735 34.7772 128.227C34.632 127.355 35.2129 127.065 35.7937 126.702Z" fill="#E8D2B3"/>
<path d="M73.1144 31.3669C72.824 31.6574 72.6062 32.0204 72.2431 32.2382C71.8075 32.5287 71.2266 32.3108 70.9362 31.9478C70.6457 31.5847 70.7183 31.0765 71.0814 30.6408C71.4444 30.2052 71.8801 30.2052 72.461 30.3504C72.6788 30.6408 72.8966 30.9313 73.1144 31.3669Z" fill="#E8D2B3"/>
<path d="M20.1829 45.8886C19.8924 46.0338 19.602 46.179 19.4568 46.3242C18.6581 46.179 18.5855 45.5255 18.295 44.9447C18.4403 44.5816 18.6581 44.2912 18.7307 44.0734C20.0376 44.146 20.1829 44.3638 20.1829 45.8886Z" fill="#E8D2B3"/>
<path d="M37.8993 26.2117C38.6254 25.7034 39.2062 25.7034 39.7871 26.2843C39.8597 26.5021 39.8597 26.8652 39.9323 27.2282C39.5693 27.446 39.2789 27.6639 38.9158 27.8817C38.5528 27.7365 38.2623 27.5912 37.8993 27.3734C37.8993 27.083 37.8993 26.7199 37.8993 26.2117Z" fill="#E8D2B3"/>
<path d="M52.9293 37.2482C53.365 37.0304 53.728 36.8126 54.1637 36.5947C54.5267 36.8852 54.8897 37.1756 55.3254 37.5386C54.9624 37.9743 54.6719 38.3373 54.3815 38.6278C53.1471 38.6278 53.1471 38.6278 52.9293 37.2482Z" fill="#E8D2B3"/>
<path d="M28.6054 119.005C28.4602 118.715 28.2424 118.425 28.0972 118.134C28.2424 117.844 28.3876 117.481 28.5328 117.19C28.9685 117.19 29.3315 117.118 29.8398 117.118C29.985 117.408 30.1302 117.698 30.348 117.989C30.2754 118.207 30.2028 118.425 30.0576 118.57C29.6946 118.933 29.3315 119.151 28.6054 119.005Z" fill="#E8D2B3"/>
<path d="M44.6519 67.9616C44.2888 68.3973 43.9984 68.6877 43.708 68.9781C43.1271 69.1233 42.8367 68.7603 42.4736 68.3973C42.4736 68.1068 42.5462 67.6712 42.5462 67.2355C42.9819 67.1629 43.4175 67.0903 43.8532 67.0177C44.2162 67.3081 44.4341 67.5986 44.6519 67.9616Z" fill="#E8D2B3"/>
<path d="M26.4272 25.6309C25.7011 26.2117 25.6285 27.2282 24.612 27.9543C24.3942 27.7365 24.249 27.5913 24.249 27.5913C24.0311 26.7926 24.4668 26.5748 24.612 26.2117C24.7572 25.8487 24.8298 25.4856 24.9024 25.1226C25.7011 24.8322 26.1368 24.8322 26.4272 25.6309Z" fill="#E8D2B3"/>
<path d="M63.4575 69.0507C63.1671 68.252 62.804 67.5259 63.8206 66.8724C64.111 67.0177 64.474 67.0903 64.8371 67.2355C64.9097 67.5985 64.9097 67.9616 64.9823 68.1794C64.3288 68.8329 64.3288 68.8329 63.4575 69.0507Z" fill="#E8D2B3"/>
<path d="M50.1702 89.8168C49.3715 89.962 49.0084 89.7442 48.718 89.2359C48.6454 88.4372 49.2262 88.2194 49.6619 87.8563C50.3154 87.9289 50.6058 88.292 50.751 88.8728C50.6058 89.1633 50.388 89.5263 50.1702 89.8168Z" fill="#E8D2B3"/>
<path d="M28.2424 115.52C27.952 115.883 27.8068 116.101 27.6615 116.319C27.0081 116.537 26.645 116.246 26.282 115.738C26.3546 115.375 26.4998 114.939 26.645 114.504C26.9355 114.431 27.2259 114.431 27.5163 114.358C27.6615 114.649 27.8794 115.012 28.2424 115.52Z" fill="#E8D2B3"/>
<path d="M21.4898 122.418C21.1994 122.563 21.0542 122.636 20.8364 122.781C20.1829 122.418 20.1103 121.619 19.5294 121.184C19.6746 120.893 19.8199 120.603 19.9651 120.24C20.1829 120.24 20.4733 120.24 20.5459 120.312C21.1268 120.893 21.4172 121.619 21.4898 122.418Z" fill="#E8D2B3"/>
<path d="M66.144 27.0104C66.507 27.1556 66.7975 27.2282 67.0153 27.3008C67.3784 27.9543 67.2331 28.4625 66.7249 28.8256C66.5797 28.8982 66.4344 28.9708 66.3618 28.8982C65.781 28.8256 65.781 28.753 65.2727 28.0995C65.3453 27.9543 65.4179 27.7365 65.4905 27.5912C65.7084 27.446 65.9262 27.2282 66.144 27.0104Z" fill="#E8D2B3"/>
<path d="M60.5531 72.8989C60.1901 73.625 59.6092 73.7702 58.8105 73.5524C58.7379 73.4071 58.5201 73.2619 58.5201 73.0441C58.4475 72.8263 58.5201 72.5358 58.5201 72.318C59.7544 71.7372 59.8996 71.8098 60.5531 72.8989Z" fill="#E8D2B3"/>
<path d="M53.9458 78.0542C53.365 78.0542 52.7115 78.272 52.2758 77.6185C52.058 76.5294 52.058 76.5294 53.0745 76.0938C53.2924 76.239 53.5102 76.4568 53.8006 76.6746C53.8006 77.1829 53.8732 77.6185 53.8732 78.1268L53.9458 78.0542Z" fill="#E8D2B3"/>
<path d="M18.0047 83.7175C17.7142 82.7736 17.7142 82.4832 18.1499 82.1928C18.6581 81.8297 19.0212 81.9749 19.6747 82.701C19.3842 83.7175 19.3842 83.7175 18.0047 83.7175Z" fill="#E8D2B3"/>
<path d="M8.49285 32.1656C8.8559 32.4561 9.14633 32.7465 9.36416 32.9643C9.36416 33.6178 9.00111 33.9083 8.56546 34.1261C8.0572 34.1987 7.83938 33.9083 7.62155 33.5452C7.47634 32.8917 7.69416 32.4561 8.49285 32.1656Z" fill="#E8D2B3"/>
<path d="M29.5493 24.9773C29.7671 24.0334 29.7671 24.0334 30.9289 23.8882C31.0741 24.106 31.2919 24.3238 31.5097 24.6143C31.2919 24.9047 31.1467 25.1951 31.0015 25.413C30.2754 25.6308 29.8398 25.4856 29.5493 24.9773Z" fill="#E8D2B3"/>
<path d="M68.1044 49.2286C67.8866 49.6643 67.6688 49.9547 67.5236 50.2451C66.9427 50.3904 66.6523 50.0999 66.4344 49.7369C66.2166 49.156 66.507 48.793 66.9427 48.5025C67.3057 48.4299 67.3057 48.4299 68.1044 49.2286Z" fill="#E8D2B3"/>
<path d="M24.8298 104.411C24.1764 104.484 23.7407 104.484 23.3777 104.484C22.8694 104.12 22.8694 103.685 23.0872 103.177C23.4503 102.741 23.8859 102.668 24.4668 102.886C24.612 103.322 24.6846 103.757 24.8298 104.411Z" fill="#E8D2B3"/>
<path d="M33.1072 15.8287C33.4702 15.9013 33.7607 15.9013 33.9785 15.974C34.4141 16.337 34.4141 16.7726 34.2689 17.1357C33.9785 17.6439 33.4702 17.5713 33.0346 17.4987C32.5989 16.9905 32.5263 16.5548 33.1072 15.8287Z" fill="#E8D2B3"/>
<path d="M40.6584 49.8094C40.368 49.5916 40.1501 49.3738 39.9323 49.2286C39.7871 48.5025 39.9323 48.0668 40.5858 47.849C40.9488 47.849 41.2393 48.0668 41.3845 48.3573C41.6749 48.9381 41.4571 49.3738 40.6584 49.8094Z" fill="#E8D2B3"/>
<path d="M60.8437 78.4898C60.9163 79.2158 60.9163 79.7241 60.9163 80.1597C60.5532 80.4502 60.5532 80.4502 59.8998 80.1597C59.7545 79.5789 59.6093 78.9254 59.8271 78.1267C60.1902 78.2719 60.4806 78.4171 60.8437 78.4898Z" fill="#E8D2B3"/>
<path d="M72.6788 29.6969C72.5336 29.4791 72.461 29.2613 72.2432 28.9708C72.461 28.6804 72.6788 28.4626 72.8966 28.2448C73.1871 28.2448 73.3323 28.2447 73.6227 28.3174C73.7679 28.5352 73.9858 28.8256 74.131 29.1161C73.6953 29.8421 73.6953 29.8421 72.6788 29.6969Z" fill="#E8D2B3"/>
<path d="M18.1498 116.101C18.3676 116.319 18.5854 116.464 18.8033 116.609C18.8033 116.9 18.8033 117.19 18.8033 117.481C18.5854 117.626 18.295 117.844 18.1498 117.989C17.4237 117.844 17.1333 117.481 17.2785 116.682C17.4963 116.537 17.7868 116.319 18.1498 116.101Z" fill="#E8D2B3"/>
<path d="M26.4271 105.282C26.0641 105.282 25.7737 105.282 25.5558 105.282C25.0476 104.919 25.0476 104.484 25.1202 103.975C25.4832 103.612 25.9915 103.54 26.3545 103.758C26.7902 104.048 26.7902 104.411 26.4271 105.282Z" fill="#E8D2B3"/>
<path d="M21.8528 36.0864C22.4337 35.7233 22.8694 35.6507 23.2324 36.0864C23.5228 36.6672 23.305 37.1029 22.7967 37.3933C21.7802 37.1755 21.7802 37.1755 21.8528 36.0864Z" fill="#E8D2B3"/>
<path d="M72.0253 17.3534C72.3157 17.789 72.5335 18.0069 72.6788 18.2247C72.6788 18.8056 72.5335 19.2412 71.9527 19.459C71.2992 19.2412 71.0814 18.733 71.2266 18.0069C71.517 17.8616 71.6622 17.7164 72.0253 17.3534Z" fill="#E8D2B3"/>
<path d="M44.8697 63.6051C44.8697 63.0968 44.7971 62.8064 44.7971 62.3707C45.0876 62.2255 45.378 62.0803 45.5958 61.9351C46.3219 62.1529 46.5397 62.5885 46.3219 63.242C46.2493 63.3146 46.1041 63.4598 46.0315 63.5324C45.741 63.6051 45.378 63.6051 44.8697 63.6051Z" fill="#E8D2B3"/>
<path d="M19.0212 125.976C19.4568 126.484 19.3842 126.92 19.239 127.355C19.0212 127.428 18.8759 127.573 18.6581 127.573C18.0773 127.501 18.0773 127.501 17.6416 126.774C17.8594 126.048 18.2951 125.758 19.0212 125.976Z" fill="#E8D2B3"/>
<path d="M47.411 85.8958C46.7575 85.5328 46.6849 85.0971 46.9027 84.5162C47.1206 84.4436 47.411 84.2984 47.7014 84.1532C47.9919 84.4436 48.2097 84.6615 48.3549 84.8793C48.3549 85.5328 47.9919 85.8232 47.411 85.8958Z" fill="#E8D2B3"/>
<path d="M36.1567 92.7937C36.1567 92.0676 36.5924 91.8498 36.9554 91.5593C37.2459 91.5593 37.2459 91.5593 37.7541 92.4306C37.6089 92.7211 37.3911 93.0115 37.2459 93.2293C36.665 93.4471 36.4472 93.0841 36.1567 92.7937Z" fill="#E8D2B3"/>
<path d="M29.4041 136.649C29.1863 136.94 28.9685 137.157 28.7506 137.23C28.5328 137.303 28.2424 137.303 28.0972 137.303C27.5889 136.867 27.5889 136.431 27.8793 135.851C28.0246 135.778 28.315 135.705 28.6054 135.633C28.8959 135.996 29.1137 136.359 29.4041 136.649Z" fill="#E8D2B3"/>
<path d="M71.4444 48.938C71.154 48.7202 70.7909 48.575 70.5005 48.3572C70.7909 47.3407 70.7909 47.3407 71.7348 47.4133C72.1705 48.212 72.1705 48.212 71.4444 48.938Z" fill="#E8D2B3"/>
<path d="M69.484 42.9117C69.3388 42.3308 69.7744 41.8952 69.4114 41.4595C69.3388 41.3869 69.6292 41.0965 69.7744 40.8787C69.9922 41.0239 70.0648 41.0965 70.2827 41.1691C70.2827 41.6774 70.3553 42.2582 70.3553 42.9117C70.2827 43.1295 70.2827 43.1295 69.484 42.9117Z" fill="#E8D2B3"/>
<path d="M65.0549 45.4529C64.474 45.7433 64.0383 45.5981 63.6753 44.872C63.8931 44.5816 64.1109 44.2911 64.3288 43.9281C64.6192 44.0733 64.9096 44.2185 65.0549 44.3638C65.3453 44.7268 65.3453 45.0898 65.0549 45.4529Z" fill="#E8D2B3"/>
<path d="M46.0314 49.6642C45.9588 49.8094 45.8862 49.882 45.8135 50.0272C45.7409 50.0998 45.5957 50.1724 45.4505 50.3176C45.3053 50.3176 45.0875 50.3176 44.9422 50.245C44.5066 49.9546 44.2888 49.5915 44.5066 49.0833C45.4505 48.5024 45.6683 48.575 46.0314 49.6642Z" fill="#E8D2B3"/>
<path d="M60.408 61.6447C59.9723 62.0803 59.6093 62.0077 59.1737 61.7173C59.2463 61.0638 58.8832 60.2651 59.6093 59.7568C60.1902 60.0473 59.8997 60.4829 60.045 60.846C60.1176 61.0638 60.2628 61.3542 60.408 61.6447Z" fill="#E8D2B3"/>
<path d="M35.358 116.101C35.5759 115.883 35.8663 115.665 36.1567 115.448C36.4472 115.593 36.5924 115.665 36.7376 115.738C37.028 116.391 36.7376 116.754 36.2293 117.045C35.6485 117.045 35.358 116.827 35.358 116.101Z" fill="#E8D2B3"/>
<path d="M60.4079 86.9124C60.6258 87.1302 60.8436 87.348 61.0614 87.711C60.8436 88.0015 60.6258 88.2919 60.4079 88.5823C60.1175 88.5097 59.8271 88.5097 59.5366 88.4371C59.464 88.1467 59.3914 87.8563 59.464 87.6384C59.464 87.2028 59.5366 87.2028 60.4079 86.9124Z" fill="#E8D2B3"/>
<path d="M34.3415 34.1986C34.7045 34.5617 34.6319 34.9247 34.4141 35.3603C34.1237 35.7234 33.688 35.796 33.1797 35.6508C32.8893 35.3603 32.8167 35.0699 33.1071 34.6343C33.4702 34.489 33.9058 34.3438 34.3415 34.1986Z" fill="#E8D2B3"/>
<path d="M129.096 73.262C128.515 73.4072 128.007 73.5524 127.353 73.6976C126.482 73.4798 125.538 73.1894 124.521 73.0441C123.795 72.8989 123.214 72.4633 122.706 71.8824C122.416 71.5194 122.053 71.2289 121.617 71.0111C120.528 70.3576 119.366 69.7768 118.64 68.6876C117.551 68.4698 116.97 67.5985 116.171 67.0176C115.373 66.4368 114.501 65.8559 113.703 65.0572C113.703 65.0572 113.63 64.912 113.63 64.6942C113.412 64.6216 113.194 64.6216 112.904 64.4763C112.614 64.3311 112.396 64.1133 112.178 63.9681C110.726 62.7337 109.274 61.4994 107.821 60.265C107.531 60.0472 107.168 59.8294 106.877 59.539C106.587 59.2485 106.224 59.1033 106.151 58.5951C104.99 58.232 104.191 57.2155 103.247 56.4894C102.884 56.199 102.666 55.8359 102.158 55.6907C102.085 55.6907 102.085 55.6181 102.013 55.6181C101.504 54.6742 100.561 54.2385 99.8345 53.5125C99.1084 52.7864 98.2371 52.1329 97.5836 51.4068C96.9301 50.6081 96.1314 50.0272 95.5506 49.0833C95.3327 48.7203 94.9697 48.4299 94.534 48.2846C93.6627 47.7764 93.0093 47.0503 92.3558 46.3242C91.9927 45.9612 91.6297 45.5255 91.2667 45.1625C90.831 44.5816 90.3228 44.0734 89.8871 43.4925C89.5967 43.0568 89.4515 42.476 88.798 42.3307C88.6528 42.3307 88.5801 42.0403 88.5075 41.8951C87.9267 41.0238 87.3458 40.2251 86.7649 39.4264C86.4019 38.9181 85.9662 38.4825 85.6032 37.9016C85.3128 37.3934 84.8045 37.0303 84.4415 36.5947C84.0784 36.159 83.6428 35.7234 83.3523 35.2151C82.9167 34.5616 82.4084 33.9808 81.9002 33.3999C81.3919 32.819 81.0289 32.0929 80.448 31.5847C80.3028 31.4395 80.1576 31.149 80.085 31.0038C79.8671 30.6408 79.7219 30.3503 79.5041 29.9873C79.5767 29.8421 79.6493 29.6969 79.7219 29.5517C79.6493 29.4064 79.5041 29.3338 79.4315 29.1886C79.0684 28.3899 78.8506 27.5186 78.415 26.7199C78.0519 25.9938 77.9067 25.1951 77.6163 24.3965C77.5437 24.1786 77.3984 23.8882 77.471 23.6704C77.6163 22.8717 77.3984 22.0004 77.3984 21.2017C78.0519 20.403 78.4876 19.4591 78.3424 18.3699C79.0684 17.5713 79.7219 16.7726 80.5206 15.9013C81.1741 15.4656 81.8276 14.9573 82.6263 14.3765C83.7154 14.3765 84.6593 13.4326 85.8936 13.2147C86.0389 13.2874 86.2567 13.4326 86.4745 13.36C87.7088 13.1421 89.0158 13.723 90.2501 13.4326C91.0488 13.5778 91.9201 13.4326 92.7188 13.8682C92.7914 13.8682 92.7914 13.9408 92.864 13.9408C93.7353 13.723 94.4614 14.2313 95.1149 14.6669C95.2601 14.8847 95.3327 15.03 95.5506 15.393C95.6232 15.03 95.6958 14.8847 95.7684 14.6669C96.4219 14.7395 97.0027 14.8847 97.4384 15.4656C97.8014 15.4656 98.0919 15.4656 98.4549 15.4656C98.5275 15.6834 98.6001 15.8286 98.6727 16.0465C98.8179 16.1191 99.0358 16.1917 99.181 16.1917C99.7619 15.9739 100.343 16.1191 100.851 16.3369C101.722 16.7726 102.666 17.063 103.32 17.7891C104.336 18.0069 105.062 18.8056 106.079 19.1686C106.587 18.3699 107.095 17.6439 107.531 16.8452C107.676 16.6273 107.749 16.4095 107.894 16.2643C108.112 15.9739 108.257 15.6108 108.402 15.2478C108.547 14.8847 108.402 14.4491 108.765 14.1586C109.128 13.8682 108.911 13.4326 109.201 13.0695C109.419 12.7791 109.637 12.4161 109.782 12.053C109.854 11.9078 109.927 11.69 110 11.5448C110.363 10.6734 111.96 8.13215 112.614 7.33346C112.904 6.97041 113.049 6.60737 113.34 6.24433C114.501 4.86477 115.518 3.4126 116.97 2.25086C117.478 1.88782 117.769 1.30695 118.422 1.01652C118.785 0.871303 119.148 0.580866 119.584 0.508257C119.874 0.435649 120.165 0.217825 120.528 0C120.891 0 121.254 0 121.762 0C121.544 0.217825 121.399 0.363039 121.109 0.580865C121.327 0.653473 121.472 0.653476 121.69 0.726085C121.835 0.653476 121.98 0.508258 122.125 0.43565C122.561 0.43565 122.851 0.871302 123.142 1.08913C123.432 0.94391 123.65 0.798694 123.94 0.653477C124.013 0.871303 124.086 0.943911 124.086 1.01652C124.449 1.23435 124.739 1.37956 125.03 1.59738C125.247 1.7426 125.538 1.88782 125.683 2.03303C126.337 3.04955 126.7 4.21129 127.716 4.79216C127.934 5.37303 128.297 5.80868 128.37 6.46216C128.442 7.04302 128.805 7.55128 129.023 8.05954C129.241 8.71302 129.677 9.29388 129.531 10.02C129.531 10.0926 129.604 10.2378 129.604 10.3104C130.04 11.1817 130.04 12.1256 130.112 12.9969C130.112 13.36 130.112 13.723 130.257 14.0134C130.475 14.5943 130.548 15.1752 130.548 15.756C130.62 16.7 131.056 17.6439 130.766 18.5878C130.984 19.2412 131.056 19.8947 131.129 20.5482C131.274 23.1621 131.347 25.8486 131.347 28.4625C131.347 29.8421 131.419 31.2943 131.564 32.6738C131.637 33.5451 131.71 34.4164 131.637 35.2877C131.564 36.0864 131.782 36.8125 131.782 37.6112C131.782 39.9347 131.637 42.3307 131.782 44.6542C131.855 45.8886 131.71 47.1955 131.927 48.4299C131.637 49.2286 132 49.9546 131.927 50.7533C131.782 51.8425 131.927 53.0042 131.927 54.0933C131.927 55.6907 132 57.2155 132 58.8129C132 58.9581 132 59.1033 132 59.2485C131.782 61.3542 131.855 63.4598 131.637 65.5655C131.855 66.582 131.492 67.5985 131.564 68.615C131.637 69.5589 131.347 70.5754 130.766 71.3741C130.475 71.8098 130.185 72.3181 129.894 72.7537C129.822 72.6811 129.386 72.9715 129.096 73.262ZM83.0619 21.4921C83.4976 21.2017 83.8606 20.8386 83.9332 20.3304C84.0058 19.8221 84.8045 19.8221 84.6593 19.096C83.8606 18.8782 83.2071 19.3139 82.481 19.6769C82.4084 20.0399 82.4084 20.4756 82.3358 20.8386C82.6263 21.0565 82.8441 21.2743 83.0619 21.4921ZM118.277 8.20476C118.567 7.62389 118.785 7.11563 119.076 6.60737V6.53476C118.277 6.97042 118.204 7.04303 117.914 8.13215C117.914 8.20476 117.914 8.27737 117.987 8.27737C117.914 8.20476 118.059 8.20476 118.277 8.20476Z" fill="url(#paint0_linear)"/>
<path d="M76.7448 72.899C76.7448 72.6085 76.7448 72.4633 76.7448 72.3181C76.0913 70.2851 75.5105 68.252 74.857 66.2916C74.6392 65.5655 74.5666 64.8394 74.5666 64.1133C74.5666 63.3146 74.1309 62.516 73.9857 61.7173C73.8405 60.9912 73.9131 60.1925 73.9131 59.4664C73.8405 58.3773 73.9131 57.2881 73.6953 56.199C73.4774 54.6742 73.4774 53.2221 73.6227 51.6973C73.6227 51.4795 73.6227 51.3343 73.6227 51.1164C73.6227 50.0999 73.55 49.156 73.7679 48.1395C73.9857 46.9777 73.9131 45.6708 74.0583 44.5091C74.3487 42.3308 74.7844 40.2251 75.22 38.1195C75.8009 34.8521 77.3983 31.9478 78.6326 28.9708C79.1409 27.8091 79.867 26.7926 80.6657 25.9213C80.9561 25.6309 81.3192 25.3404 81.537 24.9774C82.1179 24.0335 82.8439 23.38 83.7878 22.9443C84.0057 22.7991 84.2235 22.5813 84.4413 22.4361C85.24 22.3635 86.0387 22.2182 86.9826 22.1456C87.3457 22.2182 87.8539 22.2909 88.2896 22.4361C88.943 22.6539 89.5965 22.9443 90.0322 23.5252C91.1213 24.9048 92.283 26.2843 92.5735 28.1721C92.5735 28.3174 92.7187 28.39 92.7913 28.5352C92.9365 28.5352 93.0817 28.6078 93.2269 28.6078C94.6065 27.3735 95.9861 25.9939 97.5835 24.9774C98.0917 24.6143 98.6 24.3239 99.1082 23.9608C100.415 23.0169 101.867 22.4361 103.392 22.073C103.828 22.0004 104.191 21.8552 104.699 21.7826C105.498 21.9278 106.296 22.2182 107.168 22.2182C107.749 22.2182 108.257 22.4361 108.62 22.7991C109.346 23.4526 110.217 23.8156 110.798 24.6869C111.234 25.4856 111.67 26.2117 111.96 27.083C112.686 29.4065 112.831 31.8026 112.686 34.1986C112.613 34.7069 112.468 35.2878 112.323 35.796C112.105 36.9578 111.96 38.1921 111.67 39.3539C111.306 40.7334 110.871 42.113 110.217 43.4199C109.491 44.8721 108.983 46.3969 108.112 47.7764C107.603 48.5751 107.24 49.4464 106.732 50.2451C105.135 53.1495 102.884 55.6181 100.851 58.1594C99.8343 59.3938 98.6726 60.4103 97.6561 61.572C96.6395 62.6612 95.4778 63.6777 94.3161 64.6216C92.283 66.4368 90.0322 67.889 87.8539 69.6316C85.8935 71.229 83.6426 72.4633 81.3918 73.6251C81.1013 73.7703 80.8109 73.9881 80.4479 74.2059C80.4479 74.932 80.8109 75.5855 81.1739 76.0937C81.9 77.2555 82.6987 78.3446 83.4974 79.4337C84.6591 81.0311 86.1839 82.4107 87.5635 83.7902C88.943 85.2424 90.613 86.3315 92.5009 87.0576C92.8639 87.2028 93.227 87.4207 93.6626 87.5659C94.2435 87.6385 94.8969 87.6385 95.4778 87.7111C97.2204 87.8563 98.8904 87.3481 100.415 86.5494C100.778 86.3315 101.141 86.1137 101.432 85.8959C102.811 84.4437 104.409 83.2094 105.57 81.612C105.716 81.3942 105.933 81.1763 106.079 80.9585C106.732 79.942 107.458 78.9255 108.112 77.8363C109.273 76.0937 110.145 74.2785 110.726 72.2455C110.943 71.4468 111.306 70.7207 111.597 69.9946C112.105 69.8494 112.468 69.7042 112.904 69.6316C113.194 70.2125 113.557 70.7933 113.848 71.4468C113.267 74.3511 112.25 77.1103 110.29 79.4337C110.145 79.6516 109.927 79.8694 109.854 80.0872C109.419 81.3942 108.475 82.4107 107.531 83.4272C106.079 84.952 104.554 86.4768 102.884 87.7837C101.359 89.0181 99.6891 89.8894 97.7287 90.1072C96.7122 90.2524 95.6956 90.4702 94.6791 90.3976C94.3161 90.2524 93.953 90.1072 93.5174 90.0346C91.1939 89.5263 89.1609 88.3646 87.273 86.985C86.6922 86.5494 86.1839 85.8959 85.6757 85.3876C84.2961 84.1533 83.0618 82.7737 81.9 81.3215C80.7383 79.942 79.7944 78.4898 78.9231 76.965C78.6326 76.4568 78.4148 75.8033 77.7613 75.5129C76.7448 76.0211 75.7283 76.602 74.7118 77.0377C73.7679 77.4733 72.824 77.8363 71.8801 78.1994C70.9361 78.5624 69.9922 78.9981 68.9757 79.2885C67.2331 79.7242 65.6357 80.4503 63.8931 81.0311C62.8766 81.3942 61.7875 81.7572 60.771 81.975C59.7544 82.1929 58.8105 82.9189 57.6488 82.7011C56.7775 83.1368 55.8336 83.282 54.8897 83.4998C54.5266 83.5724 54.2362 83.645 53.8732 83.7176C51.7675 83.9355 49.6619 84.2985 47.5562 84.5163C43.1271 85.0246 38.698 85.2424 34.2689 84.8794C33.8332 84.8068 33.325 84.952 32.8893 84.952C30.8563 84.952 28.8232 84.6615 26.7902 84.3711C24.3215 84.0807 21.9254 83.5724 19.6019 82.8463C17.6415 82.2655 15.6811 81.6846 13.9385 80.4502C13.2124 79.942 12.5589 79.3611 11.8328 78.8529C11.4698 78.272 11.3246 77.6911 11.5424 76.965C11.6876 76.8924 11.8328 76.8198 12.0507 76.7472C12.6315 77.1103 12.1959 77.6911 12.5589 78.1268C12.5589 78.1268 12.6315 78.1994 12.7768 78.272C15.5359 80.0146 18.5854 80.9585 21.7802 81.612C24.3215 82.1202 26.9354 82.4107 29.4767 82.7737C31.0015 82.9189 32.5263 82.8463 34.051 82.8463C36.0115 82.8463 37.8993 82.8463 39.8597 82.7737C41.0215 82.7011 42.1832 82.5559 43.3449 82.4833C44.4341 82.4107 45.5232 82.5559 46.6123 82.1202C48.2097 82.1929 49.7345 81.7572 51.3319 81.612C54.091 81.2489 56.8501 80.5955 59.5366 79.7968C62.2957 78.9981 64.9822 77.909 67.6688 77.0377C69.5566 76.3842 71.4444 75.7307 73.2596 74.932C74.3487 74.4238 75.5831 73.7703 76.7448 72.899ZM108.475 26.0665C108.62 26.2843 108.547 26.2117 108.475 26.0665C107.313 24.4691 105.788 24.0335 103.973 24.5417C103.32 24.6869 102.666 24.9048 102.013 25.1952C98.8904 26.72 96.2765 28.9708 93.953 31.5847C93.5174 32.0204 93.1543 32.6013 93.2996 33.2547C93.4448 34.4165 93.2269 35.5782 93.2269 36.6673C93.2269 37.9743 93.0817 39.2086 92.9365 40.5156C92.7187 42.2582 92.2104 44.0008 91.7022 45.6708C91.4117 46.8325 90.8309 47.7764 90.25 48.793C89.8144 49.519 89.1609 50.0273 88.58 50.6082C87.8539 51.2616 86.91 51.4069 85.9661 51.2616C85.7483 50.6808 84.9496 50.8986 84.4413 50.1725C84.3687 49.9547 84.0783 49.4464 83.9331 48.9382C83.7878 48.3573 83.7878 47.7038 83.7878 47.123C83.7878 46.4695 83.7152 45.7434 83.9331 45.0899C84.3687 43.8556 84.5139 42.5486 84.877 41.3143C85.8209 38.2647 87.4183 35.5782 89.4513 33.1095C89.8143 32.6739 90.1048 32.093 90.3952 31.73C90.4678 29.9148 89.887 28.4626 89.3061 27.0104C89.0883 26.5022 88.7252 26.0665 88.4348 25.6308C88.0717 25.05 87.4909 24.8322 86.91 24.7595C86.4744 24.6869 86.1113 24.7595 85.6757 24.7595C84.9496 25.413 84.0783 25.9213 83.4974 26.6474C82.4083 27.8817 81.4644 29.2613 80.8109 30.7861C80.4479 31.5847 80.0122 32.3834 79.7218 33.2547C79.1409 34.6343 78.56 36.0139 78.197 37.5386C77.7613 39.3539 77.1079 41.0965 77.1805 42.9843C77.1805 43.0569 77.1805 43.1295 77.1079 43.2021C76.6722 45.3077 76.4544 47.4134 76.3818 49.519C76.3092 52.496 76.3818 55.4003 76.4544 58.3773C76.4544 60.4829 76.8174 62.5886 77.2531 64.6216C77.6887 66.6546 78.197 68.7603 78.9231 70.7207C79.0683 71.0112 79.2861 71.229 79.5039 71.592C81.1013 70.7207 82.5535 69.922 84.0057 68.9781C85.4578 67.9616 86.8374 66.8725 88.3622 65.8559C91.4117 63.7503 94.1709 61.209 96.7122 58.5951C98.1643 57.0703 99.5439 55.4729 100.851 53.8029C104.263 49.5916 106.732 44.8721 108.475 39.7895C109.056 38.0469 109.564 36.2317 109.709 34.4165C109.927 31.73 110 29.0434 108.475 26.0665ZM90.6857 36.2317C89.8144 36.7399 89.5239 37.3934 89.2335 38.0469C88.58 39.3539 87.9991 40.6608 87.4909 41.9678C86.6922 44.0008 86.4018 46.0338 86.6196 48.2121C86.6196 48.3573 86.7648 48.4299 86.91 48.5751C87.9265 47.9217 88.6526 47.0504 89.0157 45.8886C89.7417 43.6378 90.25 41.2417 90.4678 38.9182C90.5404 38.4825 90.4678 38.1195 90.4678 37.6839C90.4678 37.2482 90.613 36.8852 90.6857 36.2317Z" fill="#252B31"/>
<defs>
<linearGradient id="paint0_linear" x1="-20.4082" y1="-17.0892" x2="250.731" y2="83.6013" gradientUnits="userSpaceOnUse">
<stop stop-color="#C4A476"/>
<stop offset="0.5028" stop-color="#E8D2B3"/>
<stop offset="1" stop-color="#C8A97D"/>
</linearGradient>
</defs>
</svg>
