<svg width="135" height="143" viewBox="0 0 135 143" fill="none" xmlns="http://www.w3.org/2000/svg">
<g clip-path="url(#clip0)">
<path d="M76.7001 105.8C76.0001 106 76.2001 106.8 75.9001 107.4C75.5001 107.6 74.9001 107.9 74.2001 108.2C74.3001 108.9 74.4001 109.7 74.5001 110.5C73.8001 111.8 72.7001 112.2 71.4001 112.3C70.9001 113 70.4001 113.6 70.0001 114.1C68.9001 114.5 67.9001 114.6 67.1001 114.3C66.9001 114.2 66.7001 114.1 66.6001 114C66.2001 113.5 65.9001 112.9 65.4001 112.3C65.8001 111.6 66.1001 111 66.5001 110.4C66.4001 110.1 66.3001 109.8 66.2001 109.5C66.4001 109.1 66.7001 108.6 67.2001 108.7C67.8001 108.8 68.4001 109 69.0001 109.2C69.5001 108.5 70.0001 107.8 70.5001 107.1C70.5001 106.5 70.4001 105.8 71.4001 105.5C71.6001 105.9 71.8001 106.4 72.0001 106.9C72.2001 106.9 72.4001 106.9 72.6001 106.9C73.1001 106.2 73.6001 105.6 74.1001 104.8C75.0001 105 75.8001 105.1 76.6001 105.4C76.5001 105.4 76.6001 105.7 76.7001 105.8C76.6001 105.8 76.7001 105.8 76.7001 105.8Z" fill="#E8D2B3"/>
<path d="M66 46.4C66.4 45.3 66.8 44.2 68.4 44.5C68.8 44.8 69.3 45.3 69.8 45.7C69.8 46.2 69.9 46.5 69.9 47C70.9 47.1 71.8 47.6 72.4 48.5C73.1 48.5 73.6 48.5 74 48.5C75.3 49.1 75.5 50.3 76 51.4C75.7 52 75.4 52.6 75.1 53.2C75.1 53.3 75.1 53.5 75.2 53.7C75.6 54.3 76.1 54.9 76.5 55.5C76.2 56 76 56.4 75.8 56.8C74.5 56.9 73.9 56 73.3 55.1C73.6 54.7 73.9 54.3 74.2 53.8C73.6 53.7 73 53.7 72.3 53.6C71.9 53.3 71.5 52.9 71.1 52.6C70.9 51.8 70.8 51.1 70.7 50.4C70.3 50.1 69.9 49.8 69.5 49.6C69.4 49.2 69.2 48.8 69 48.2C68.6 48.3 68.1 48.3 67.7 48.4C66.8 47.9 66.3 47.3 66 46.4Z" fill="#E8D2B3"/>
<path d="M83.5 107C83.5 106.6 83.4 106.4 83.5 106.1C83.5 105.7 83.6 105.4 83.7 105C84.4 104.5 85.5 104.7 85.8 103.5C85.5 103.1 85.2 102.6 84.7 102C85 101.1 85.3 100.1 85.6 99.3C86.4 99 86.5 99.6 86.8 99.9C87.1 100.1 87.5 100.2 87.8 100.4C88.4 100.9 89 100.5 89.7 100.5C89.5 100.9 89.4 101.2 89.3 101.5C90 102.3 90.4 101.3 91.1 101.3C91.6 101.4 91.9 101.7 91.9 102.4C91.7 102.6 91.5 102.8 91.2 103.1C91.2 103.5 91.2 103.9 91.3 104.3C91.5 104.5 91.7 104.6 92 104.8C91.8 104.9 91.7 105 91.6 105.1C90.5 105.4 89.6 105 88.5 104.8C87.9 105 87.2 105.2 86.6 105.9C87.1 106.3 87.6 106.7 87.9 107C88.2 107.8 88.1 108.4 87.5 109C87.1 109 86.6 109 86.2 109C86.2 108.7 86.3 108.4 86.3 108.2C85.3 108 84.3 107.9 83.5 107Z" fill="#E8D2B3"/>
<path d="M15.0001 58.2C15.4001 58.8 15.7001 59.5 16.1001 60.2C16.1001 61.4 16.1001 61.4 15.4001 62.9C14.9001 63.2 14.4001 63.5 13.8001 63.8C12.3001 63.1 10.8001 62.7 9.60015 61.3C9.40015 60.4 9.20015 59.3 8.90015 58C9.30015 57.5 9.70015 56.9 10.2001 56.4C10.9001 56.4 11.4001 56.4 12.1001 56.4C12.6001 56.9 13.1001 57.4 13.7001 57.9C13.9001 58.1 14.2001 58.1 14.5001 58.1C14.6001 58.1 14.8001 58.2 15.0001 58.2Z" fill="#E8D2B3"/>
<path d="M49.4001 62.5C48.9001 63.2 48.5001 63.7 48.2001 64.1C46.8001 64.7 46.3001 63.5 45.5001 63.1C45.4001 62.6 45.3001 62.2 45.2001 61.8C44.6001 61.4 43.9001 60.9 43.2001 60.5C43.2001 60 43.2001 59.7 43.1001 59.2C43.4001 58.8 43.8001 58.4 44.1001 57.9C44.4001 57.4 44.7001 56.9 45.0001 56.4C45.7001 56.3 46.5001 56.1 47.3001 55.9C47.7001 56.2 48.1001 56.6 48.4001 56.8C48.5001 57.1 48.6001 57.1 48.6001 57.2C48.5001 59.1 49.2001 60.8 49.4001 62.5Z" fill="#E8D2B3"/>
<path d="M80.6002 88.8001C81.7002 88.6001 82.8002 88.6001 83.9002 89.6001C84.0002 90.1001 84.2002 90.7001 84.3002 91.3001C84.9002 91.7001 85.7002 91.2001 86.1002 92.0001C86.1002 92.6001 85.5002 92.6001 85.2002 92.8001C84.8002 93.1001 84.5002 93.4001 84.2002 93.7001C83.7002 93.7001 83.2002 93.6001 82.8002 93.7001C82.0002 93.8001 81.2002 94.1001 80.3002 93.8001C79.8002 93.7001 79.1002 94.1001 78.3002 94.3001C78.0002 94.1001 77.7002 93.8001 77.4002 93.5001C77.4002 93.2001 77.3002 92.9001 77.4002 92.8001C78.6002 91.8001 78.7002 89.6001 80.6002 88.8001Z" fill="#E8D2B3"/>
<path d="M97.9001 102C97.6001 101.3 97.8001 100.7 98.5001 100.1C99.1001 100.1 99.8001 100.1 100.6 100.1C100.9 100.6 101.2 101.1 101.4 101.6C101.6 101.6 101.8 101.7 101.9 101.6C102.5 100.9 103.1 100.2 103.7 99.6C104.7 99.3 105.2 99.6001 105.4 100.5C105.3 100.7 105.3 101 105.2 101C104.6 101.3 103.9 101.5 103.3 101.7C103 102.5 103.7 102.7 104.1 103.1C103.8 103.5 103.5 104 103.3 104.4C103.2 105.2 104.1 105.3 104.2 105.6C104.7 106.7 104.4 107.4 103.3 107.8C103.1 107.7 102.6 107.6 102.4 107.3C101.9 106.6 101.6 105.8 101.2 105C100.5 105 99.8001 105 99.1001 105C98.7001 103.7 100.6 103.8 100.2 102.6C99.4001 102.9 98.6001 102.8 97.9001 102Z" fill="#E8D2B3"/>
<path d="M63.0001 56.7C63.0001 57.3 63.0001 57.7 63.0001 58.6C62.7001 58.9 62.2001 59.3 61.8001 59.7C60.5001 59.7 59.4001 59.7 58.0001 59.7C57.7001 59.4 57.4001 59 57.1001 58.7C57.1001 58.3 57.0001 58.1 57.1001 58C57.5001 57 57.8001 56.1 58.2001 55.2C58.9001 54.8 59.5001 54.4 60.2001 54.1C60.5001 54.3 60.9001 54.3 61.0001 54.5C61.6001 55.1 62.2001 55.8 63.0001 56.7Z" fill="#E8D2B3"/>
<path d="M34.8001 76.6C35.5001 76.8 36.1001 77 36.6001 77.2C37.1001 76.9 37.6001 76.6 38.1001 76.3C39.1001 76.4 39.2001 77 39.5001 77.6C39.6001 78.5 39.0001 78.9 38.3001 79.6C37.9001 79.5 37.5001 79.5 36.9001 79.4C37.0001 79.9 37.1001 80.4 37.2001 81C36.7001 81.3 36.1001 81.6 35.5001 81.9C35.0001 81.6 34.5001 81.3 34.0001 81C34.1001 80.5 34.2001 80 34.2001 79.5C33.9001 79.2 33.6001 78.8 33.3001 78.4C33.4001 78 33.5001 77.6 33.6001 77.1C33.1001 76.7 32.3001 76.3 32.9001 75.4C33.2001 75 33.7001 75 34.2001 75.2C34.9001 75.4 35.0001 75.9 34.8001 76.6Z" fill="#E8D2B3"/>
<path d="M76.6001 105.8C77.1001 105.7 77.7001 105.6 78.2001 105.5C78.3001 104.8 78.0001 104.5 77.6001 104.3C77.2001 104.4 76.9001 104.5 76.4001 104.7C76.3001 104.4 76.2001 104.1 76.1001 103.9C76.5001 103.2 77.1001 103.6 77.8001 103.4C78.2001 103.1 78.6001 102.8 79.0001 102.5C79.7001 102.3 80.3001 102.2 80.9001 102.6C81.3001 104.8 81.3001 104.8 82.6001 106.3C81.6001 108.2 81.1001 108.5 79.4001 107.8C78.8001 107.6 78.3001 107.6 77.8001 107.4C77.4001 107.3 77.0001 106.9 76.6001 106.7C76.7001 106.3 76.7001 106.1 76.6001 105.8Z" fill="#E8D2B3"/>
<path d="M77 117.7C76.8 117.4 76.5 117.2 76.3 117C76.5 115.9 77.4 116.1 78.1 115.9C78 115 78 114.1 77.9 113.3C78.4 112.4 78.8 111.6 79.3 110.6C80.4 109.9 81.3 110.9 82.2 111.3C82.3 112 81.8 112.1 81.3 112.4C81.1 113.1 80.9 113.8 80.6 114.5C80.8 114.8 80.9 115.1 81.1 115.5C81 116.2 80.4 116.6 80 117.1C79 117.2 78.1 117.4 77 117.7Z" fill="#E8D2B3"/>
<path d="M58.7 33.2001C58.3 33.4001 57.8 33.5001 57.4 33.7001C57.3 34.3001 57.2 34.8001 57.1 35.5001C56.7 35.7001 56.3 36.0001 55.9 36.3001C55.5 36.1001 55 35.9001 54.7 35.8001C54.1 35.1001 54.2 33.8001 54.8 33.1001C54.9 33.0001 55.1 32.8001 55.2 32.7001C55.4 32.6001 55.6 32.5001 55.7 32.5001C56.1 32.5001 56.4 32.6001 56.7 32.7001C57.4 32.0001 58.1 31.3001 58.9 30.7001C59.6 30.1001 60.4 30.1001 61.4 30.4001C62 31.2001 61.8 32.1001 61.5 33.0001C60.7 33.9001 59.7 33.5001 58.7 33.2001Z" fill="#E8D2B3"/>
<path d="M87.3 80.8C87.9 80.1 88.4 79.6 88.9 79.1C89.6 79.1 90.3 79 90.9 79C91.2 79.2 91.4 79.3 91.5 79.4C92.2 80.4 92.9 81.4 93.6 82.4C93.8 83.4 93.2 84 92.3 84.5C92.1 84.5 91.9 84.6 91.8 84.5C90.4 83.3 88.9 82.2 87.3 80.8Z" fill="#E8D2B3"/>
<path d="M67.7002 100.2C67.4002 99.1 67.5002 98 68.1002 97.1C69.5002 96.4 70.6002 96.8 71.7002 97.4C72.2002 99 72.2002 99 71.8002 100.8C71.4002 101.1 71.0002 101.4 70.5002 101.8C69.3002 101.7 68.3002 101.3 67.7002 100.2Z" fill="#E8D2B3"/>
<path d="M74.4001 84.9C74.8001 84.5 75.2001 84.1 75.7001 83.7C76.2001 83.7 76.8001 83.6 77.3001 83.6C78.6001 84.1 79.0001 85.1 79.4001 86.4C79.3001 86.7 79.1001 87.2 78.9001 87.6C78.7001 87.9 78.5001 88.2 78.3001 88.5C78.0001 88.6 77.9001 88.7 77.7001 88.7C76.9001 88.6 76.1001 88.4 75.5001 88.3C74.6001 87.2 74.2001 86.3 74.4001 84.9Z" fill="#E8D2B3"/>
<path d="M115.7 115.5C116.4 117.1 115.5 117.8 115.1 118.7C114.6 118.9 114.2 119.2 113.8 119.4C112.3 119.2 111.2 118.5 110.8 116.8C111.3 115.9 111.7 115 112.2 114C113.4 114.5 114.6 115 115.7 115.5Z" fill="#E8D2B3"/>
<path d="M97.8 133C97.9 132.1 98.3 131.5 99.2 131C100.2 131 101.3 131 102.4 131C103.2 131.3 103.5 131.8 103.4 132.8C103 133.3 102.4 133.9 101.8 134.6C101.2 134.8 100.6 135 100 135.3C99.6 135.1 99.1 134.9 98.6 134.7C98.3 134.1 98 133.5 97.8 133Z" fill="#E8D2B3"/>
<path d="M51.5001 100.2C51.9001 100.7 52.3001 101.2 52.7001 101.7C52.7001 102.3 52.7001 102.7 52.7001 103.2C52.4001 103.6 52.0001 104.1 51.7001 104.5C50.6001 104.6 49.6001 104.9 48.6001 103.9C48.4001 103.3 48.1001 102.5 47.9001 101.9C48.0001 101 48.5001 100.5 49.1001 100.2C49.6001 99.9 50.4001 100 51.5001 100.2Z" fill="#E8D2B3"/>
<path d="M64.2002 2.8C64.2002 1.6 64.8002 0.9 65.5002 0.1C65.9002 0.1 66.5002 0 67.1002 0C67.6002 0.5 68.2002 1 68.6002 1.4C68.6002 4 68.6002 4.1 66.3002 4.9C65.1002 4.7 64.5002 3.8 64.2002 2.8Z" fill="#E8D2B3"/>
<path d="M129.3 110.6C129.6 109.3 130.4 108.6 131.8 108.2C132.1 108.3 132.5 108.4 132.9 108.6C133.3 108.8 133.7 109.1 134 109.4C134.5 111.1 133.7 112.1 132.5 112.9C130.9 112.8 129.7 112.4 129.3 110.6Z" fill="#E8D2B3"/>
<path d="M19.1001 32.1C18.6001 31 18.5001 30.2 18.8001 29.4C19.6001 28.2 20.8001 28.5 21.9001 28.5C22.3001 29 22.7001 29.4 23.0001 29.8C23.0001 30.5 23.0001 31.1 23.0001 31.9C22.4001 32.3 21.8001 32.7 21.2001 33.1C20.4001 32.7 19.7001 32.4 19.1001 32.1Z" fill="#E8D2B3"/>
<path d="M30.6 54.7C31.4001 55.6 31.3 56.4 31 57.2C30.6 57.5 30.2 57.8 29.8 58.2C30.2 60.1 30.2 60.1 29.6 62C28.6 61.8 28.2 60.9 27.3 60.5C27.3 59.8 27.4 59.1999 27.4 58.5999C27.9 58.1999 28.4 57.8999 28.9 57.5999C28.7 57.0999 28.6 56.5 28.4 55.9C28.6 55.6 28.8001 55.2 29.1 54.7C29.5001 54.7 30.0001 54.7 30.6 54.7Z" fill="#E8D2B3"/>
<path d="M75.8001 134.6C75.0001 135.8 75.0001 135.8 73.7001 135.9C72.8001 135.6 72.9001 134.7 72.6001 134.1C72.4001 134.1 72.2001 134 72.1001 134C71.3001 134.3 70.6001 134.2 70.1001 133.5C69.7001 132.7 69.8001 132.1 70.6001 131.6C71.7001 131 72.3001 131.8 73.0001 132.5C73.3001 132.4 73.7001 132.3 74.0001 132.2C75.1001 132.6 75.7001 133.4 75.8001 134.6Z" fill="#E8D2B3"/>
<path d="M7.1001 69.4C6.7001 70.5 5.9001 71.1 4.6001 71.4C3.6001 71.1 2.7001 70.6 2.1001 69.5C2.4001 68.7 2.6001 67.8 3.5001 67.2C3.7001 67.2 4.0001 67.1 4.4001 67.1C4.8001 67.1 5.1001 67.2 5.4001 67.2C6.6001 67.7 6.9001 68.5 7.1001 69.4Z" fill="#E8D2B3"/>
<path d="M74.1001 70.7C73.3001 71.2 72.3001 71.8 71.5001 72.3C69.5001 72.1 69.5001 72.1 69.4001 70.2C70.2001 69.6 71.1001 68.9 72.0001 68.2C72.6001 68.3 73.2001 68.3 73.8001 68.4C74.4001 69.1 74.6001 69.8 74.1001 70.7Z" fill="#E8D2B3"/>
<path d="M62.8002 83.2C63.5002 83.7 64.0002 84.3 64.0002 85.1C64.0002 85.2 64.0002 85.3 63.9002 85.4C63.9002 85.5 63.8002 85.6 63.8002 85.7C63.2002 86.5 62.5002 87.3 61.9002 88.2C61.5002 88 61.2002 87.8 60.9002 87.7C60.7002 86.7 60.5002 85.7 60.2002 84.6C60.5002 84.2 60.8002 83.7 61.1002 83.3C61.8002 83.2 62.4002 83.2 62.8002 83.2Z" fill="#E8D2B3"/>
<path d="M29.3 50.8C29.5 51.1 29.7 51.3 29.8 51.6C29.5 52.6 29.5 52.6 28.6 53.2C27.5 53.1 27.4 51.9 26.7 51.2C26.2 51.7 25.9 52.1 25.6 52.4C24.9 52.4 24.7 51.9 24.5 51.5C24.8 51.1 25.1 50.8 25.3 50.4C25.5 50.1 25.5 49.7 25.6 49.3C25.8 48.9 26.2 48.6 26.6 48.5C27.4 48.5 27.7 49 28.1 49.6C28.1 49.8 28 50.3 28.1 50.5C28.3 50.6 28.7 50.6 29.3 50.8Z" fill="#E8D2B3"/>
<path d="M61.1 90.4C61.6 90.9 62 91.4 62.4 91.8C62.6 93.2 61.7 93.8 60.7 94.4C60.1 94.1 59.5 93.9 59 93.7C58.5 92.8 58 92 57.5 91.3C57.6 91.1 57.7 91 57.8 90.8C58.3 90.4 58.8 91.1 59.4 90.7C59.8 90.4 60.5 90.5 61.1 90.4Z" fill="#E8D2B3"/>
<path d="M34.6001 83.8C34.4001 84.9 34.0001 85.3 33.0001 85.4C31.7001 85 31.2001 84 31.1001 82.7C30.7001 82.6 30.3001 82.5 29.8001 82.4C29.4001 82 29.4001 81.6 29.6001 81C30.0001 81.2 30.5001 81.4 30.9001 81.6C31.2001 81.3 31.4001 81.1 31.7001 80.7C32.2001 80.8 32.6001 80.9 32.9001 81C33.5001 82.1 34.0001 82.9 34.6001 83.8Z" fill="#E8D2B3"/>
<path d="M88.3001 91.8C88.7001 92 89.1001 92.1 89.6001 92.3C89.8001 93.4 90.1001 94.5 90.3001 95.5C89.4001 96.8 89.4001 96.8 87.7001 96.4C87.4001 95.5 87.2001 94.5 86.9001 93.5C87.4001 92.5 87.4001 92.5 88.3001 91.8Z" fill="#E8D2B3"/>
<path d="M96.1001 92.5C96.7001 92 97.4001 91.6 98.4001 91.7C99.4001 92.1 99.5001 93.1 99.9001 94C99.7001 94.5 99.4001 94.9 99.2001 95.4C98.1001 95.8 97.1001 95.8 96.3001 95C95.9001 94.1 95.7001 93.3 96.1001 92.5Z" fill="#E8D2B3"/>
<path d="M72.7 30.7001C71.5 30.2001 71.5 30.2001 70.6 29.2001C70.3 28.3001 70.7 27.6001 71.4 26.8001C71.9 26.8001 72.5 26.7001 72.9 26.8001C73.7 27.1001 74.3 27.7001 74.3 28.7001C74.2 29.7001 73.6 30.2001 72.7 30.7001Z" fill="#E8D2B3"/>
<path d="M102.8 112C103.1 112.4 103.5 112.9 103.8 113.2C103.8 113.8 103.4 114.1 102.9 114.2C102.1 114.4 101.3 114.5 100.3 114.7C100.1 114.6 99.7001 114.3 99.4001 114C99.1001 113.7 98.8001 113.3 98.4001 112.9C98.5001 112.5 98.6001 112.1 98.8001 111.6C99.5001 111.5 100.1 111.5 100.8 111.4C101.3 111.7 101.7 112 102.2 112.3C102.5 112.2 102.7 112.1 103 112C102.9 112.1 102.8 112 102.8 112Z" fill="#E8D2B3"/>
<path d="M56.7002 131.8C57.0002 131.3 57.2002 130.8 57.5002 130.3C58.3002 130.3 59.0002 130.2 59.8002 130.2C60.3002 130.8 60.8002 131.4 61.3002 132C60.7002 132.6 60.2002 133.2 59.9002 133.6C58.2002 134.1 57.4002 133.3 56.7002 131.8Z" fill="#E8D2B3"/>
<path d="M42.2001 102.7C41.8001 102.5 41.4001 102.3 40.9001 102.1C40.9001 101.3 40.9001 100.6 40.9001 99.9C41.8001 99.4 42.6001 99 43.8001 99.1C44.1001 99.5 44.5001 99.9 44.9001 100.3C44.4001 101.7 43.5001 102.5 42.2001 102.7Z" fill="#E8D2B3"/>
<path d="M15 58.2001C14.8 58.2001 14.6 58.1 14.4 58.1C14.2 57.6 14 57 13.9 56.5C13.8 56 13.8 55.4 13.8 54.6C13.9 54.4 14.1 54.0001 14.2 53.7001C14.9 53.4001 15.3 53.4 15.7 53.8C16.3 54.5 16.7 55.4001 17 56.4001C16.7 56.9001 16.4 57.5001 16 58.0001C15.8 58.3001 15.4 58.4001 15 58.2001Z" fill="#E8D2B3"/>
<path d="M50.6001 119.3C50.9001 119 51.1001 118.8 51.5001 118.6C51.4001 118.2 51.3001 117.6 51.2001 117C51.6001 116.6 52.0001 116.1 52.3001 115.8C53.3001 115.7 53.7001 116.2 54.0001 117C53.9001 117.3 53.8001 117.7 53.6001 118.2C53.7001 118.6 53.9001 119 54.0001 119.3C53.7001 120.4 53.1001 120.8 51.9001 120.6C51.5001 120.2 51.1001 119.7 50.6001 119.3Z" fill="#E8D2B3"/>
<path d="M49.8002 80.3C49.8002 81.7 49.8002 81.7 48.6002 82.8C48.0002 82.7 47.4002 82.5 46.9002 82.4C45.9002 81.7 45.8002 80.8 46.0002 79.7C46.4002 79.5 46.9002 79.3 47.4002 79C48.3002 79.5 49.1002 79.9 49.8002 80.3Z" fill="#E8D2B3"/>
<path d="M16.9001 80.7C17.0001 81.9 16.7001 82.7 15.4001 83.1C15.0001 82.9 14.5001 82.7 14.0001 82.5C13.6001 82.3 13.1001 82.2 12.6001 82.1C12.6001 81.6 12.6001 81.2 12.6001 80.7C13.7001 80.4 14.6001 80.1 15.8001 79.8C16.1001 80 16.5001 80.4 16.9001 80.7Z" fill="#E8D2B3"/>
<path d="M45.8002 117.4C46.5002 118 46.8002 118.2 47.2002 118.5C48.1002 118.4 49.1002 118.4 49.6002 119.3C49.8002 119.7 49.8002 120.2 49.9002 120.6C49.0002 121.5 48.1002 122.2 46.8002 121.1C46.5002 120.3 46.4002 119.2 45.6002 118.5C45.4002 118.5 45.6002 118.1 45.8002 117.4Z" fill="#E8D2B3"/>
<path d="M49.2002 112C48.6002 111.7 48.2002 111.4 47.7002 111.1C47.7002 110.4 47.7002 109.8 47.7002 109C48.2002 108.7 48.7002 108.4 49.1002 108.2C50.1002 108.4 50.7002 108.8 50.9002 109.6C51.2002 110.7 50.5002 111.4 49.2002 112Z" fill="#E8D2B3"/>
<path d="M67.1001 31.9C67.1001 31.1 67.1001 30.7 67.1001 30.2C67.1001 30 67.2001 29.8 67.2001 29.7C68.2001 28.7 68.2001 28.7 69.7001 29.4C69.7001 29.8 69.8001 30.2 69.7001 30.7C69.5001 31.4 69.1001 32.1 68.8001 32.7C68.9001 32.9 68.9001 33.1 69.1001 33.4C69.0001 33.5 68.8001 33.7 68.6001 33.9C67.4001 33.6 67.7001 32.5 67.1001 31.9Z" fill="#E8D2B3"/>
<path d="M47.4 77.3C47.1 76.3 46.8 75.6 46.5 74.9C46.9 74.7 47.3 74.6 47.7 74.4C48.5 75.1 49.2 75.8 50.1 76.6C50.5 76.7 51 76.9 51.5 77.1C51.5 77.6 51.5 77.9 51.5 78.2C51.1 78.7 50.6 78.8 50.2 78.6C49.7 78.4 49.3 78 48.8 77.8C48.4 77.5 48 77.5 47.4 77.3Z" fill="#E8D2B3"/>
<path d="M26.1 77.2C27 77.3 27.7 77.4 28.1 77.5C29 78.3 29 79.1 28.8 79.9C28.2 80.7 27.4 80.8 26.6 80.7C25.8 80.3 25.4 79.7 25.5 78.9C25.4 78.4 25.8 77.9 26.1 77.2Z" fill="#E8D2B3"/>
<path d="M7.79999 96.4C8.29999 96.1 8.59999 95.8 8.89999 95.6C9.89999 95.7 10.4 96.3 10.6 97C10.8 97.8 10.8 98.7 9.89999 99.4C9.39999 99.4 8.79999 99.4 8.19999 99.4C7.49999 98.5 7.79999 97.5 7.79999 96.4Z" fill="#E8D2B3"/>
<path d="M36.2002 127.6C36.4002 129.1 36.0002 130.1 34.5002 130.7C34.1002 130.6 33.6002 130.4 33.0002 130.1C32.9002 129.5 32.8002 128.9 32.7002 128.2C33.4002 127.7 34.1002 127.3 34.9002 126.8C35.4002 127.1 35.9002 127.4 36.2002 127.6Z" fill="#E8D2B3"/>
<path d="M3.60011 76C3.20011 76.5 2.90011 76.8 2.70011 77.1C1.60011 77.6 0.800106 77.1 0.100106 76.4C0.000105526 75.3 0.0001055 75.3 0.800106 74C1.30011 74 1.80011 74 2.40011 74C3.10011 74.4 3.30011 75.1 3.60011 76Z" fill="#E8D2B3"/>
<path d="M67.7 92C67.6 91.3 67.5 90.9 67.5 90.5C67.8 89.6 68.4 89.2 69.3 88.9C69.7 89.1 70.2 89.3 70.6 89.5C71.1 90.3 71.2 91.1 70.5 91.8C69.7 92.5 68.8 92.3 67.7 92Z" fill="#E8D2B3"/>
<path d="M66.1 132.7C66.6 133.5 67 134.1 66.8 135C66.4 135.3 65.9 135.6 65.3 136C64.1 135.2 63.3 134.4 63.7 133C64.4 132.1 65.2 132.4 66.1 132.7Z" fill="#E8D2B3"/>
<path d="M21.8 78.1C21.4 78.8 21.2 79.4 20.9 79.9C20.4 80 20.4 80 19.8 78.4C19.8 77.8 20.5 77.8 20.8 77.4C20.9 77.1 20.9 76.7 21 76.2C21.4 75.9 21.9 75.5 22.5 75C22.9 75.2 23.3001 75.5 23.6 75.6C23.6 77.6 23.6 77.6 21.8 78.1Z" fill="#E8D2B3"/>
<path d="M37.4 36.6C36.8 38 36.8 38 35.3 38.1C35.1 37.9 34.9 37.6 34.5 37.2C34.8 36.7 35.1 36.1 35.6 35.5C35.6 35.1 35.6 34.6 35.7 34.1C36.3 33.4 36.5 33.5 37.4 34.4C37.3 34.8 37.1 35.2 36.9 35.6C37.1 35.8 37.3 36.2 37.4 36.6Z" fill="#E8D2B3"/>
<path d="M62.8 113.9C63.2 114.2 63.6 114.6 64.1 115C63.9 115.5 63.8 115.9 63.6 116.4C62.8 117.1 62 117.4 61 116.5C60.9 116.2 60.8 116 60.8 115.7C60.8 115.3 60.9001 115 60.9001 114.7C61.1001 114 61.7 113.7 62.8 113.9Z" fill="#E8D2B3"/>
<path d="M40.1 39.8C40.6 40.4 41 40.8001 41.4 41.4001C41.2 41.7001 41.1 42.1 40.9 42.3C40.4 42.7 39.8 42.9001 39.1 43.2001C38.7 43.0001 38.4 42.9001 38.1 42.7001C37.7 41.7001 37.7 40.8 38.7 40C39 39.9 39.5 39.9 40.1 39.8Z" fill="#E8D2B3"/>
<path d="M92.3 70.3C91.6 70.1 91 69.9 90.3 69.7C90.1 69.2 90 68.7 89.8 68.1C90.6 67.7 91.2 67.4 91.9 67.1C92.3 67.4 92.7 67.7 93 67.9C93.3 68.8 93.4 69.6 92.3 70.3Z" fill="#E8D2B3"/>
<path d="M15.2002 73C15.2002 72.5 15.2002 72.1 15.2002 71.7C17.1002 70.4 17.1002 70.4 18.3002 71.4C18.1002 72.2 18.0002 73 17.8002 73.8C17.0002 73.6 16.1002 74.2 15.2002 73Z" fill="#E8D2B3"/>
<path d="M94.6002 81.3C93.5002 79.8 93.5002 79.6 94.4002 77.6C94.6002 77.5 94.7002 77.4 94.9002 77.4C95.2002 77.3 95.4002 77.4 95.7002 77.4C96.4002 77.8 96.7002 78.3 96.5002 79.2C95.9002 79.8 95.3002 80.5 94.6002 81.3Z" fill="#E8D2B3"/>
<path d="M99.1001 117.1C99.8001 116.7 100.4 115.7 101.5 116.1C102.2 116.6 102.3 117.3 102.1 118.2C101.8 118.4 101.5 118.7 101.1 118.8C100.3 119 99.7001 118.4 99.2001 117.8C98.9001 117.8 98.5001 117.7 98.1001 117.7C98.0001 117.5 97.9001 117.3 97.9001 117C98.2001 116.5 98.6001 116.9 99.1001 117.1Z" fill="#E8D2B3"/>
<path d="M122.1 98.2C121.6 98.6 121 99.1 120.4 99.6C119.8 99.2 119.3 98.9 118.9 98.6C118.7 97.6 119.1 97 119.6 96.4C119.8 96.4 120.1 96.2 120.4 96.3C121.4 96.4 122 97 122.1 98.2Z" fill="#E8D2B3"/>
<path d="M55.1 13.7C54.7 14.2 54.4 14.5 54.1 14.8C53.6 14.8 53.1 14.8 52.5 14.8C52.2 14.4 51.8 14 51.5 13.5C51.8 13 52.1 12.5 52.4 12C53 12 53.6 12 54.2 12C54.4 12.4 54.7 12.9 55.1 13.7Z" fill="#E8D2B3"/>
<path d="M37.3001 58.4C37.3001 59 37.3001 59.6 37.3001 60.1C36.8001 60.7 36.4001 61 35.5001 60.7C35.2001 60.3 34.8001 59.8 34.6001 59.2C34.4001 58.6 34.4001 57.9 35.2001 57.5C36.0001 57.5 36.6001 57.9 37.3001 58.4Z" fill="#E8D2B3"/>
<path d="M74.4001 102.4C74.0001 102.3 73.7002 102.2 73.3002 102C73.2002 100.3 74.0002 99.3 75.3002 98.5C75.7002 98.7 76.0001 98.8 76.4001 99C76.5001 99.3 76.5001 99.5 76.6001 99.7C76.5001 100.5 75.9001 100.6 75.5001 101C75.1001 101.5 74.8001 101.9 74.4001 102.4Z" fill="#E8D2B3"/>
<path d="M21.2001 46.9C21.1001 47.2 20.9001 47.6 20.7001 48C20.4001 48.2 20.0001 48.4 19.5001 48.7C19.1001 48.5 18.7001 48.3 18.2001 48.1C18.1001 47.6 18.0001 47.1 17.9001 46.3C18.2001 46 18.5001 45.7 18.6001 45.6C20.1001 45.4 20.8001 45.9 21.2001 46.9Z" fill="#E8D2B3"/>
<path d="M64.4001 38.9C64.7001 38.8 64.9001 38.7 65.1001 38.6C65.8001 39 66.5001 39.4 67.4001 39.9C67.5001 40.2 67.6001 40.6 67.6001 40.9C67.5001 41.7 66.9001 42.1 66.2001 42C65.6001 42 64.8001 41.3 65.0001 40.7C65.2001 40 64.5001 39.6 64.4001 38.9Z" fill="#E8D2B3"/>
<path d="M12.4001 76.5C12.4001 75.7 12.4001 75.1 12.4001 74.5C13.2001 73.8 14.0001 73.8 14.8001 74.2C15.3001 74.7 15.4001 75.5 15.1001 76C14.7001 76.8 14.2001 76.9 12.4001 76.5Z" fill="#E8D2B3"/>
<path d="M80.7002 98.7C80.5002 98.4 80.3002 98.1 80.2002 97.9C80.3002 97 80.7002 96.6 81.7002 96.5C82.4002 97 83.2002 97.6 83.9002 98.1C84.1002 98.7 83.8002 99 83.3002 99.3C82.5002 99.2 81.6002 99 80.7002 98.7Z" fill="#E8D2B3"/>
<path d="M66.8 121.2C67.1 121.9 67.3 122.5 67.5 123C66.6 123.6 66 123.2 65.3 122.9C64.6 122.9 64 124.1 63 123C63.1 122.8 63.2 122.4 63.3 122C64.3 121.8 65.4 121.5 66.8 121.2Z" fill="#E8D2B3"/>
<path d="M21.6001 80.5C22.0001 79.7 22.6001 79.3 23.4001 79.2C24.1001 79.4 24.1001 80 24.4001 80.5C24.7001 80.8 25.3001 80.9 25.3001 81.7C25.2001 81.8 25.0001 82.1 24.7001 82.5C23.9001 82 23.2001 81.4 22.2001 81.3C22.1001 81.2 21.8001 80.7 21.6001 80.5Z" fill="#E8D2B3"/>
<path d="M31.2002 60.5C32.5002 60.2 32.5002 60.2 33.5002 60.4C34.0002 61 33.9002 61.6 33.6002 62.3C33.3002 62.5 32.9002 62.7 32.5002 62.9C32.1002 62.7 31.7002 62.4 31.2002 62.2C31.2002 61.7 31.2002 61.2 31.2002 60.5Z" fill="#E8D2B3"/>
<path d="M28.8002 67.8C28.1002 67.5 27.4002 67.2 26.8002 66.9C26.7002 66.5 26.7002 66.2 26.7002 66C27.0002 65.3 27.5002 64.9 28.2002 64.8C28.9002 65 29.3002 65.5 29.4002 66.2C29.5002 66.7 29.5002 67.2 28.8002 67.8Z" fill="#E8D2B3"/>
<path d="M34.8 116C35.8 116.5 36.6 116.9 36.8 117.8C36.5 118.7 35.9 118.9 34.9 118.8C34.5 118.5 34.1 118.1 33.5 117.6C33.9 117 34.3 116.6 34.8 116Z" fill="#E8D2B3"/>
<path d="M53.5001 79.1C54.2001 79.5 54.6001 80 54.2001 81.1C53.9001 81.3 53.4001 81.6 53.0001 81.8C52.2001 81.8 51.9001 81.4 51.6001 80.9C51.9001 79.3 51.9001 79.3 53.5001 79.1Z" fill="#E8D2B3"/>
<path d="M34.0002 69.2C33.7002 69.9 33.4002 70.4 33.2002 70.8C31.5002 71.3 31.5002 71.3 30.7002 69.9C31.4002 68.5 31.4002 68.5 34.0002 69.2Z" fill="#E8D2B3"/>
<path d="M100.4 109.1C99.9002 109.2 99.6002 109.3 99.2002 109.3C98.8002 109.3 98.5002 109.2 98.1002 109.2C97.6002 108.2 97.6002 108.2 98.0002 107C98.5002 107 99.0002 106.9 99.4002 106.9C100.3 107.3 100.6 108 100.4 109.1Z" fill="#E8D2B3"/>
<path d="M68.4002 118.1C68.6002 117.7 68.8002 117.3 69.0002 116.9C69.9002 116.4 70.5002 116.8 71.0002 117.7C70.9002 118 70.9002 118.3 70.8002 118.8C69.7002 118.9 68.6002 119 67.5002 119.1C67.4002 119.1 67.3002 118.8 67.2002 118.6C67.4002 118.5 67.7002 118.4 67.9002 118.3C68.0002 118.2 68.2002 118.1 68.4002 118.1Z" fill="#E8D2B3"/>
<path d="M57.9001 44.5C58.4001 44.5 58.6001 44.4 58.8001 44.5C59.0001 44.6 59.2001 44.8 59.6001 45.1C59.5001 45.5 59.4001 45.9 59.2001 46.6C59.3001 46.9 59.3001 47.4 59.4001 47.9C58.7001 48.6 58.2001 48.5 57.6001 47.8C57.7001 47.3 57.8001 46.8 57.9001 46.3C57.9001 45.8 57.9001 45.3 57.9001 44.5Z" fill="#E8D2B3"/>
<path d="M94.1 45.6C94.4 46.2 94.5 46.6 94.8 47.1C94.3 47.6 93.9 48 93.4 48.4C93 48.2 92.7 48.2 92.5 48C92.3 47.8 92.1 47.6 92 47.4C92.3 45.7 92.3 45.7 94.1 45.6Z" fill="#E8D2B3"/>
<path d="M36.2002 27.4C36.4002 27.1 36.5002 26.9 36.6002 26.8C36.9002 26.9 37.3002 27 37.7002 27.1C38.3002 26.8 38.8002 26.5 39.4002 27C39.8002 27.5 39.7002 28.1 39.4002 28.8C39.1002 28.9 38.7002 29 38.3002 29.2C37.6002 28.5 37.0002 28 36.2002 27.4Z" fill="#E8D2B3"/>
<path d="M48.7001 67.1C48.1001 67 47.3001 67 46.6001 66.8C46.1001 66.7 45.9001 66.2 46.1001 65.6C47.0001 65.2 48.0001 65.7 49.0001 65.4C49.3001 65.7 49.5001 65.9 49.6001 66.1C49.7001 66.7 49.3001 66.9 48.7001 67.1Z" fill="#E8D2B3"/>
<path d="M80.2002 14.3C80.2002 12.8 80.3002 12.7 82.0002 12.6C82.2002 12.9 82.5002 13.2 82.8002 13.7C82.5002 14.1 82.4002 14.4 82.1002 14.6C81.5002 15.1 80.8002 15 80.2002 14.3Z" fill="#E8D2B3"/>
<path d="M8.30005 42C8.00005 43 7.30005 43.4 6.50005 43.1C5.70005 42.8 5.40005 42.1 5.70005 41.3C7.20005 40.8 7.20005 40.8 8.30005 42Z" fill="#E8D2B3"/>
<path d="M48.6002 28.7C47.8002 28.6 47.5002 28.1 47.2002 27.4C47.3002 27.2 47.3002 26.9 47.5002 26.7C47.7002 26.5 47.9002 26.3 48.1002 26.2C48.9002 26.1 49.4002 26.4 49.8002 27C49.8002 28 49.3002 28.4 48.6002 28.7Z" fill="#E8D2B3"/>
<path d="M37.3001 90.2C37.4001 91 37.3001 91.4 36.3001 91.5C36.0001 91.3 35.7001 91 35.4001 90.6C34.8001 90.8 34.3001 90.7 33.9001 90C34.0001 89.7 34.2001 89.3 34.4001 89C34.7001 89 35.0001 88.9 35.0001 89C35.5001 89.9 36.6001 89.8 37.3001 90.2Z" fill="#E8D2B3"/>
<path d="M62.7 97.1C62.2 96.1 62.6 95.5 63.5 95.1C64 95.3 64.6 95.6 65.2 95.9C65.1 96.3 65 96.5 64.9 96.7C64.4 97.4 63.6 97.4 62.7 97.1Z" fill="#E8D2B3"/>
<path d="M54.7001 92.8C54.3001 91.8 54.1 91 53.8 90.2C54 89.9 54.3 89.6 54.6 89.2C55.2 89.6 55.6 89.9 56 90.1C56 90.4 55.2001 92.2 54.7001 92.8Z" fill="#E8D2B3"/>
<path d="M72.7001 44.3C72.3001 44.3 71.9001 44.3 71.5001 44.3C70.9001 43.7 70.9001 43.1 71.1001 42.5C71.7001 41.9 72.3001 41.9 73.0001 42.3C73.4001 43 73.4001 43.6 72.7001 44.3Z" fill="#E8D2B3"/>
<path d="M81.6002 84.7C81.2002 84.4 81.0002 84.2 80.7002 84C80.9002 83.5 81.0002 83.1 81.1002 82.7C81.9002 82.5 82.7002 82.3 83.5002 82.1C83.7002 82.3 83.8002 82.4 83.9002 82.6C83.0002 83.2 82.9002 84.4 81.6002 84.7Z" fill="#E8D2B3"/>
<path d="M41 66.3C41.5 65.6 42 65.2 42.8 65.8C42.8 66.4 42.9 67.1 43 68C42.6 68.1 42.2 68.2 41.7 68.3C41.5 67.6 41.3 67 41 66.3Z" fill="#E8D2B3"/>
<path d="M75.9001 21.5C76.4001 21.8 76.8001 22 77.2001 22.2C77.2001 22.6 77.3001 22.8 77.2001 23.1C77.0001 23.8 77.0001 23.8 76.0001 24.4C74.6001 23.1 74.6001 23 75.9001 21.5Z" fill="#E8D2B3"/>
<path d="M60 88.3C59.7 88.9 59.5001 89.3 59.4001 89.6C58.4001 90.1 57.8 89.7 57.3 88.8C57.5 88.4 57.8 88 58 87.6C58.9 87.4 59.5 87.6 60 88.3Z" fill="#E8D2B3"/>
<path d="M121 124.6C122.5 125.5 122.6 126 121.3 127.3C120.9 127.1 120.4 126.9 120 126.7C119.8 125.6 120 125 121 124.6Z" fill="#E8D2B3"/>
<path d="M68.3002 72.7C68.0002 72.9 67.6002 73 67.3002 73.2C66.0002 72.1 66.0002 71.8 67.3002 70.7C68.7002 71.4 68.7002 71.4 68.3002 72.7Z" fill="#E8D2B3"/>
<path d="M90.4001 116.2C90.8001 115.2 91.2001 116.1 91.9001 115.9C92.2001 115.8 92.8001 115.7 93.5001 115.5C93.7001 116 93.8001 116.4 94.0001 116.9C93.7001 117.2 93.4001 117.4 93.1001 117.7C92.1001 117.2 91.3001 116.7 90.4001 116.2Z" fill="#E8D2B3"/>
<path d="M77.6002 37.1C78.0002 37.4 78.5002 37.6 78.8002 37.8C79.1002 38.8 78.6002 39.2 78.0002 39.7C77.6002 39.5 77.2002 39.4 76.8002 39.2C76.4002 38.3 76.5002 37.6 77.6002 37.1Z" fill="#E8D2B3"/>
<path d="M44.1 31.4C43.8 31.2 43.5 31.1 43.3 31C43.3 30.7 43.3 30.6 43.3 30.6C44.4 30.4 44.2 28.6 45.5 28.6C46.1 28.9 46 29.4 46 30C45.4 30.4 44.7 30.9 44.1 31.4Z" fill="#E8D2B3"/>
<path d="M24.8 61C25.5 61.1 25.8 61.4 25.9 62.1C25.4 62.4 24.9 62.6 24.4 62.8C24 63 23.8 63.5 23.1 63.4C22.9 63.2 22.7 62.9 22.5 62.5C23.4 61.9 24.1 61.4 24.8 61Z" fill="#E8D2B3"/>
<path d="M52.2002 84.4C52.0002 85.2 51.6002 85.5 50.7002 85.1C50.5002 84.5 50.3002 83.9 50.2002 83.3C50.4002 82.6 50.7002 82.4 51.4002 82.6C51.6002 83.2 51.9002 83.8 52.2002 84.4Z" fill="#E8D2B3"/>
<path d="M20.9001 93.1C20.9001 92.4 20.9001 91.9 20.9001 91.5C21.6001 90.8 22.2001 91.1 22.9001 92.1C22.4001 93.2 22.4001 93.2 20.9001 93.1Z" fill="#E8D2B3"/>
<path d="M84.2002 137.1C83.6002 137.1 83.2002 137.2 82.6002 137.2C82.5002 136.7 82.3002 136.3 82.2002 135.8C82.7002 135.5 83.1002 135.2 83.7002 134.9C84.0002 135.4 84.4002 135.7 84.5002 136.1C84.6002 136.3 84.3002 136.7 84.2002 137.1Z" fill="#E8D2B3"/>
<path d="M107.2 106C107.9 105.7 108.3 105.5 108.7 105.3C109.6 105.7 110 106.2 109.5 107.1C109 107.6 108.5 107.5 107.8 107.3C107.6 107.1 107.4 106.7 107.2 106Z" fill="#E8D2B3"/>
<path d="M60.8 108.6C59.5 108.3 59.5 107.4 59.3 106.5C59.5 106.3 59.8 106 60 105.8C61.5 106.9 61.5 107.1 60.8 108.6Z" fill="#E8D2B3"/>
<path d="M95.9001 109.9C95.5001 110.7 94.9001 111.1 94.1001 110.7C93.5001 110.2 93.6001 109.7 93.8001 109C94.2001 108.9 94.6001 108.7 94.9001 108.6C95.5001 109 95.9001 109.4 95.9001 109.9Z" fill="#E8D2B3"/>
<path d="M102.9 112.1C103 111.6 103 111.2 103.1 110.8C104.5 110.1 104.5 110.1 105.6 111.3C105.2 111.7 104.9 112.1 104.4 112.5C103.8 112.3 103.3 112.2 102.8 112.1H102.9Z" fill="#E8D2B3"/>
<path d="M52.4 112.6C52.2 112.3 51.9 112 51.5 111.5C51.8 111 52.1 110.7 52.3 110.4C53.3 110.1 53.9 110.4 54.2 111.3C53.9 112 53.4 112.6 52.4 112.6Z" fill="#E8D2B3"/>
<path d="M78.7001 50.6C78.3001 50.2 78.0001 49.8 77.8001 49.6C77.7001 48.9 78.0001 48.4 78.4001 48.3C78.8001 48.2 79.3001 48.3 79.7001 48.4C79.9001 49.7 79.9001 49.7 78.7001 50.6Z" fill="#E8D2B3"/>
<path d="M73.4001 58.3C74.5001 58 74.5001 58 75.4001 58.4C75.6001 59.2 75.3001 59.7 74.5001 60.1C74.2001 60 73.8001 59.8 73.4001 59.6C73.4001 59.2 73.4001 58.8 73.4001 58.3Z" fill="#E8D2B3"/>
<path d="M44.1001 114.6C44.3001 115.4 44.6001 116.1 44.8001 116.9C44.5001 117.2 44.2001 117.4 43.9001 117.6C43.2001 117.6 42.8001 117.4 42.6001 116.6C42.8001 116.4 43.0001 116.2 43.2001 115.9C43.6001 115.5 43.0001 114.7 44.1001 114.6Z" fill="#E8D2B3"/>
<path d="M99.3002 71.4C98.2002 71.9 97.7002 71.5 97.3002 70.7C97.2002 70 97.6002 69.7 98.2002 69.5C99.1002 69.6 99.4002 70.1 99.3002 71.4Z" fill="#E8D2B3"/>
<path d="M55.3001 38.6C55.2001 38.2 55.2001 38.1 55.1001 37.8C55.9001 37.4 56.5001 36.7 57.7001 37.1C57.8001 37.5 57.8001 37.9 57.9001 38.2C57.1001 39 56.2001 38.5 55.3001 38.6Z" fill="#E8D2B3"/>
<path d="M85.8 126.4C85.4 126.8 85.1 127 84.7 127.4C84.3 127.2 84 127 83.8 126.8C83.4 126.3 83.4 125.8 83.9 125.3C84.8 124.9 85.3 125.3 85.8 126.4Z" fill="#E8D2B3"/>
<path d="M36.5001 41.4C35.6001 42.4 35.0001 43 34.5001 43.6C33.2001 42.9 33.2001 42.9 33.8001 41.6C34.5001 41.6 35.2001 41.5 36.5001 41.4Z" fill="#E8D2B3"/>
<path d="M46.8 46.7C47 47 47.3001 47.2999 47.7001 47.7999C47.3001 48.1999 47 48.5999 46.8 48.7999C46 48.9999 45.5 48.6999 45.3 48.0999C45.3 47.1999 45.7 46.7 46.8 46.7Z" fill="#E8D2B3"/>
<path d="M18.1001 62.2C18.6001 62.1 18.9001 62 19.3001 61.9C19.6001 62.2 20.0001 62.5 20.4001 62.9C20.0001 63.4 19.7001 63.8 19.4001 64.1C18.1001 63.7 18.1001 63.7 18.1001 62.2Z" fill="#E8D2B3"/>
<path d="M45.5001 135.7C46.8001 135.2 46.8001 135.2 47.6001 136.6C47.4001 136.9 47.1001 137.2 46.8001 137.5C45.4001 137.3 45.4001 137.2 45.5001 135.7Z" fill="#E8D2B3"/>
<path d="M47.9 142.5C46.9 142.8 46.9 142.8 46.1 142.3C46.1 142.1 46 141.8 46 141.4C46.4 141.2 46.9 140.9 47.3 140.7C48 141.1 48.3 141.6 47.9 142.5Z" fill="#E8D2B3"/>
</g>
<defs>
<clipPath id="clip0">
<rect width="134.2" height="142.7" fill="white"/>
</clipPath>
</defs>
</svg>
