<svg width="75" height="128" viewBox="0 0 75 128" fill="none" xmlns="http://www.w3.org/2000/svg">
<g clip-path="url(#clip0)">
<path d="M24.2999 103.3C23.5999 103.3 22.6999 103.4 21.8999 103.4C21.4999 103.8 21.0999 104.1 20.6999 104.5C20.4999 104.5 20.2999 104.4 20.0999 104.4C19.3999 104 18.8999 103.5 18.4999 102.9C17.8999 101.9 17.1999 101.1 16.4999 100C16.5999 98.1 16.1999 96.2 15.1999 94.4C14.8999 93.9 15.2999 93.5 14.9999 93.1C14.5999 92.7 14.2999 92.2 14.1999 91.6C14.1999 91.1 14.0999 90.7 14.0999 90.1C12.6999 88.7 13.1999 86.5 11.9999 85.2C11.7999 83.4 11.5999 81.8 11.2999 80.2C11.2999 79.9 11.1999 79.6 10.9999 79.4C9.99993 77.9 9.79993 76.3 9.69993 74.6C9.59993 74 9.19993 73.3 9.39993 72.7C9.59993 72 8.89993 71.7 8.89993 71.2C8.89993 71.1 8.79993 71 8.79993 71C8.59993 70 8.49993 69 8.19993 68C7.99993 67.1 7.49993 66.2 7.49993 65.3C7.39993 64 7.19993 62.7 6.69993 61.4C6.19993 60.1 6.29993 58.8 6.49993 57.4C5.39993 55 5.19993 53.8 5.19993 51.3C5.19993 51 5.49993 50.7 5.39993 50.5C4.29993 48.5 4.59993 46.3 4.39993 44.2C4.29993 42.8 4.09993 41.5 3.69993 40.2C3.59993 39.8 3.49993 39.5 3.49993 39.1C3.49993 38.3 3.39993 37.6 3.09993 36.9C2.69993 36 2.79993 35.1 3.09993 34.1C2.49993 32.7 2.19993 31.1 2.19993 29.5C2.19993 28.2 1.79993 26.9 2.09993 25.6C2.19993 25.2 1.89993 24.7 1.89993 24.2C1.79993 23.6 1.59993 23 1.79993 22.5C2.39993 20.7 2.19993 18.8 2.19993 16.9C2.19993 15.6 1.99993 14.3 2.59993 12.9C2.49993 12.1 2.29993 11.1 2.09993 10.1C2.59993 9.50001 2.89993 8.80001 3.29993 8.00001C3.69993 8.10001 3.99993 8.10001 4.39993 8.10001C4.79993 7.30001 4.09993 7.20001 3.69993 7.00001C3.69993 6.80001 3.69993 6.60001 3.79993 6.50001C4.49993 5.60001 5.19993 4.70001 5.99993 3.90001C6.99993 2.90001 8.19993 2.00001 9.39993 1.10001C10.4999 0.600006 11.3999 1.30001 12.2999 1.90001C12.5999 1.30001 12.7999 0.700006 13.0999 0.100006C13.5999 0.300006 13.8999 0.300006 14.1999 0.500006C14.8999 1.00001 15.6999 1.60001 16.2999 2.20001C16.8999 2.90001 17.2999 3.80001 17.8999 4.70001C18.3999 5.00001 19.0999 5.20001 19.5999 5.70001C19.8999 5.90001 19.9999 6.50001 20.1999 7.00001C20.4999 7.10001 20.7999 7.30001 21.1999 7.40001C21.4999 8.10001 22.0999 8.70001 22.0999 9.40001C22.1999 10.9 23.1999 12 23.8999 13.2C24.2999 13.9 24.8999 14.6 25.3999 15.3C25.5999 16.9 26.1999 18.3 26.9999 19.7C27.8999 21.2 28.6999 22.9 29.3999 24.5C29.5999 24.8 29.4999 25.2 29.5999 25.7C30.1999 26.4 30.7999 27.3 31.3999 28C32.5999 28 33.1999 26.5 34.3999 26.9C36.2999 25.8 37.5999 24 39.4999 23C40.4999 21.1 42.6999 20.4 44.1999 18.7C45.0999 18.7 45.9999 18.2 46.7999 17.6C50.0999 15.2 53.5999 13.3 57.5999 12.1C58.4999 11.8 59.3999 11.4 60.2999 11.2C63.0999 10.4 65.8999 10.5 68.8999 11C68.9999 11.3 69.0999 11.7 69.1999 12.3C69.6999 12.6 70.2999 12.9 70.8999 13.3C71.0999 13 71.3999 12.8 71.6999 12.5C72.0999 13 72.5999 13.4 72.9999 13.9C72.8999 14.3 72.8999 14.6 72.7999 15C72.8999 15.1 73.1999 15.3 73.2999 15.5C73.6999 16.3 74.0999 17.2 74.3999 18.1L74.4999 20.5C74.2999 20.7 74.1999 21 73.9999 21.3C74.2999 23 74.2999 24.7 73.7999 26.4C72.2999 31.1 70.1999 35.5 67.9999 39.9C67.2999 41.3 66.5999 42.8 65.7999 44.2C63.5999 48.5 60.8999 52.5 58.2999 56.5C57.6999 57.5 57.0999 58.4 56.4999 59.4C53.9999 63.3 51.3999 67.1 48.9999 71C47.6999 73.1 46.1999 75.1 44.7999 77C42.2999 80.2 40.3999 83.8 38.1999 87.3C36.4999 89.9 34.7999 92.5 32.5999 94.8C31.8999 95.5 31.3999 96.3 30.8999 97.1C29.6999 98.9 28.3999 100.6 26.3999 101.7C25.4999 101.9 24.9999 102.6 24.2999 103.3Z" fill="#E8D2B3"/>
<path d="M0.10004 22.1C0.20004 22.1 0.30004 22.1 0.40004 22.1C0.50004 22.1 0.60004 22.2 0.60004 22.2C1.20004 22.8 0.60004 23.6 1.00004 24.3C1.20004 24.7 0.80004 25.4 0.70004 26.1C1.30004 27.7 1.30004 29.6 0.90004 31.7C-0.19996 28.4 3.98979e-05 25.3 0.10004 22.1Z" fill="#C4A476"/>
<path d="M5.29995 65C5.19995 64.7 5.19995 64.4 5.09995 64.1C5.09995 63.8 4.99995 63.4 4.89995 63C4.79995 62.7 4.69995 62.5 4.69995 62.2C4.69995 61.9 4.89995 61.7 4.89995 61.4C4.89995 61 4.69995 60.7 4.69995 60.3C4.69995 60.1 4.99995 59.9 5.19995 59.6C6.09995 62.1 6.09995 62.1 5.99995 64.4C5.79995 64.6 5.59995 64.8 5.29995 65Z" fill="#E8D2B3"/>
<path d="M6.5 70.1C6.7 70 6.8 69.9 7 69.8C7.3 70.7 7.6 71.5 7.8 72.4C8 73.3 8.7 74.1 8.3 75.1C8.2 75 8 75 8 74.9C7.3 73.3 6.8 71.8 6.5 70.1Z" fill="#C4A476"/>
<path d="M64.5 127.2C63.3 126.6 62.2001 126.1 61 125.5C60.9001 124.8 60.8 124.1 60.6 123.5C60.2 122.5 59.6 121.8 58.3 121.9C57.9 121.9 57.5 121.6 57.3 121.5C56.7 120.4 56.2 119.5 55.8 118.5C55.6 118.1 55.3001 117.7 55.2001 117.3C54.4001 115.1 53.2 113.3 51.3 111.7C50.8 110.6 50.4001 109.4 49.9001 108.1C49.7001 107.7 49.6 107.1 49.3 106.9C47.9 105.8 47.6001 104 46.4001 102.8C45.8001 102.2 45.4 101.2 45 100.4C43.7001 98 42.4 95.6 41.1 93.2C40.3 91.7 39.6 90.2 38.8 88.7C38.3 87.8 37.8 86.8 37.3 86C36.5 84.7 35.9001 83.4 35.9001 81.8C35.4001 81.5 35.1 81.3 34.6 80.9C34.4 80.4 34.1 79.8 33.8 79.3C33.9 79 34 78.7 34.1 78.4C33.6 77.8 33.1 77.1 32.6 76.5C32.2 76.2 32 76 32 75.7C31.4 72.8 29.9 70.3 29 67.5C27.5 63 25.9 58.6 25.5 53.9C25.5 53.6 25.3 53.4 25.3 53.3C25.5 51.8 25.7 50.5 25.8 49.2C26.3 48.4 26.8 47.6 27.3 46.7C28 46.3 28.7001 45.9 29.2001 45.6C30.8001 45.2 32.1001 45.7 33.4001 45.9C35.0001 46.2 36 47.4 37.6 47.6C39.1 47.8 40.1 48.9 41.2001 49.7C42.3001 50.5 43.4 51.1 44.5 51.9C45.6 52.7 46.5 53.6 47.3 54.7C48.9 56.5 50.5 58.4 52.7001 59.7C53.9001 58.6 54.1 58.4 54.5 57.3C55.1 55.6 55.7001 53.9 56.2001 52.2C56.9001 49.9 57.7 47.8 59.1 45.8C60.1 44.4 60.8 42.9 61.7001 41.4C62 40.9 62.2001 40.4 62.5 39.9C63.4001 38.3 64.5 37.2 66.4001 36.9C66.9001 36.8 67.3 36.6 67.7 36.5C69.5 37.6 70.5 39.1 70.7 41.1C70.7 41.6 71 42 71 42.5C71.3 45.4 71.5 48.3 71.7 51.2C71.7 51.5 71.7 51.8 71.7 52.1C72.5 56.3 72 60.6 72.1 64.9C72.2 66.8 72.1 68.7 72.1 70.6C72.1 71.7 72.1001 72.9 71.8001 74C71.6001 74.6 71.7 75.3 71.7 76C71.6 78.1 71.8 80.2 71.5 82.2C71.1 85.2 71.3001 88.3 70.9001 91.2C70.3001 95.3 70.6 99.5 69.5 103.6C69.4001 103.9 69.5 104.2 69.5 104.4C69.4001 107.3 69 110.2 68.4001 113.1C68.3001 113.6 68.4001 114 68.3001 114.5C68.0001 117.4 67.7001 120.3 67 123.2C66.7001 124.6 66.2001 125.9 64.9001 126.7C64.7001 126.6 64.7001 126.8 64.5 127.2ZM51.7001 65.4C51 64.3 50.4001 63.3 49.7001 62.4C49 61.5 48.1 60.8 47.3 60C45.9 58.6 44.6 57.1 43.1 55.8C40.2 53.2 37 51 33.3 49.7C32.3 49.4 31.3 49.2 30.3 49.3C30 49.8 29.8 50.3 29.5 50.6C29.1 51 28.7 51.3 28.3 51.6C28.4 54.4 28.4 54.4 29.8 56.4C29.4 57.3 29.2 58.2 29.6 59.2C30.0001 59.4 30.5 59.7 31 59.9C30.9 60.3 30.8001 60.6 30.7001 60.8C31.0001 61.5 31.3 62.1 31.5 62.7C31.7 63.1 31.7 63.6 31.9 64.1C32.8 66.3 33.7 68.5 34.6 70.6C35.3 72.2 36.2 73.8 37 75.4C38.3 77.9 39.7 80.4 41 82.9C41.1 83.1 41.2001 83.4 41.2001 83.7C41.4001 84.8 42 85.6 42.8 86.4C43.3 86.9 43.7001 87.4 44 88C45.2001 90.8 47 93.2 48.5 95.8C49.5 97.5 50.6 99.2 51 101.2C52.1 101.6 52.6 102.5 53 103.5C53.8 105.3 55.3001 106.7 55.9001 108.6C57.2001 109.7 57.5 111.3 58.2001 112.7C59.4001 115 60.7001 117.1 62.5 119.4C62.7001 118.3 63 117.6 63.8 117.2C64.3 115.8 64.8 114.3 64.2 112.8C63.7 111.6 63.9001 110.4 64 109.2C64.1 108.5 64.6 107.8 64.1 107C64.8 104.8 65.1 102.6 65.1 100.3C65.6 99.3 65.5 98.3 65.5 97.2C65.5 95.4 65.5 93.6 65.7 91.8C65.8 91 65.9001 90.2 65.8001 89.3C65.7001 88.5 66 87.6 66.1 86.8C66.2 81.8 66.2 76.8 66.2 71.8C66.2 71.5 66.3001 71.2 66.3001 70.9C66.6001 70.3 67.4 69.8 67.1 68.9C66.8 68.5 66.5 68 66.1 67.5C66.6 65.9 66 64.2 66.4001 62.6C65.8001 60.8 66.2001 58.8 66 57C66 56.7 66.1 56.5 66.2 56.3C66.5 56 66.8 55.7 67 55.5C66.7001 55.1 66.4 54.9 66.1 54.5C66 52 65.9001 49.5 65.9001 46.9C65.9001 45.2 65.6 43.6 65 41.8C64.5 42.1 64 42.3 63.7001 42.5C62.9001 43.2 62.4001 44.1 61.9001 45C60.1001 48.5 58.6 52.2 57.5 56C56.8 58.7 55.9 61.4 55.1 63.9C55.3 64.5 55.7 64.9 55.3 65.4C54.9 65.5 54.6 65.7 54.3 65.8C53.9 66.5 53.6 67.3 53 68C52.6 68.4 52.2001 69.1 51.4001 68.8C52.5001 67.7 52 66.5 51.7001 65.4Z" fill="#252B31"/>
</g>
<defs>
<clipPath id="clip0">
<rect width="74.3" height="127.2" fill="white"/>
</clipPath>
</defs>
</svg>
