<svg width="103" height="69" viewBox="0 0 103 69" fill="none" xmlns="http://www.w3.org/2000/svg">
<path d="M65.3048 51.1164C65.3048 50.8259 65.3048 50.6807 65.3048 50.5355C64.6513 48.5025 64.0704 46.4694 63.4169 44.509C63.1991 43.7829 63.1265 43.0568 63.1265 42.3307C63.1265 41.5321 62.6909 40.7334 62.5456 39.9347C62.4004 39.2086 62.473 38.4099 62.473 37.6838C62.4004 36.5947 62.473 35.5056 62.2552 34.4164C62.0374 32.8917 62.0374 31.4395 62.1826 29.9147C62.1826 29.6969 62.1826 29.5517 62.1826 29.3338C62.1826 28.3173 62.11 27.3734 62.3278 26.3569C62.5456 25.1951 62.473 23.8882 62.6182 22.7265C62.9087 20.5482 63.3443 18.4426 63.78 16.3369C64.3608 13.0695 65.9582 10.1652 67.1926 7.18825C67.7008 6.02651 68.4269 5.00999 69.2256 4.13869C69.5161 3.84826 69.8791 3.55782 70.0969 3.19478C70.6778 2.25087 71.4039 1.59739 72.3478 1.16174C72.5656 1.01652 72.7834 0.7987 73.0013 0.653483C73.8 0.580875 74.5986 0.435651 75.5426 0.363042C75.9056 0.435651 76.4139 0.508266 76.8495 0.653483C77.503 0.871308 78.1565 1.16174 78.5921 1.74261C79.6812 3.12217 80.843 4.50173 81.1334 6.38955C81.1334 6.53477 81.2786 6.60737 81.3512 6.75259C81.4965 6.75259 81.6417 6.8252 81.7869 6.8252C83.1664 5.59086 84.546 4.2113 86.1434 3.19478C86.6516 2.83174 87.1599 2.5413 87.6682 2.17825C88.9751 1.23434 90.4273 0.653483 91.9521 0.290441C92.3877 0.217832 92.7508 0.0726085 93.259 0C94.0577 0.145217 94.8564 0.435655 95.7277 0.435655C96.3086 0.435655 96.8168 0.653483 97.1799 1.01653C97.906 1.67 98.7773 2.03304 99.3581 2.90434C99.7938 3.70303 100.229 4.42912 100.52 5.30042C101.246 7.62389 101.391 10.02 101.246 12.4161C101.173 12.9243 101.028 13.5052 100.883 14.0134C100.665 15.1752 100.52 16.4095 100.229 17.5713C99.8664 18.9508 99.4307 20.3304 98.7773 21.6373C98.0512 23.0895 97.5429 24.6143 96.6716 25.9938C96.1634 26.7925 95.8003 27.6638 95.2921 28.4625C93.6947 31.3669 91.4438 33.8356 89.4108 36.3769C88.3943 37.6112 87.2325 38.6277 86.216 39.7895C85.1995 40.8786 84.0377 41.8951 82.876 42.839C80.843 44.6542 78.5921 46.1064 76.4139 47.849C74.4534 49.4464 72.2026 50.6807 69.9517 51.8425C69.6613 51.9877 69.3708 52.2055 69.0078 52.4233C69.0078 53.1494 69.3708 53.8029 69.7339 54.3111C70.46 55.4729 71.2587 56.562 72.0574 57.6511C73.2191 59.2485 74.7439 60.6281 76.1234 62.0077C77.503 63.4598 79.173 64.549 81.0608 65.275C81.4238 65.4202 81.7869 65.6381 82.2225 65.7833C82.8034 65.8559 83.4569 65.8559 84.0378 65.9285C85.7803 66.0737 87.4503 65.5655 88.9751 64.7668C89.3382 64.549 89.7012 64.3311 89.9916 64.1133C91.3712 62.6611 92.9686 61.4268 94.1303 59.8294C94.2755 59.6116 94.4934 59.3937 94.6386 59.1759C95.2921 58.1594 96.0181 57.1429 96.6716 56.0538C97.8334 54.3112 98.7047 52.4959 99.2855 50.4629C99.5034 49.6642 99.8664 48.9381 100.157 48.212C100.665 48.0668 101.028 47.9216 101.464 47.849C101.754 48.4299 102.117 49.0107 102.408 49.6642C101.827 52.5686 100.81 55.3277 98.8499 57.6511C98.7047 57.869 98.4868 58.0868 98.4142 58.3046C97.9786 59.6116 97.0347 60.6281 96.0908 61.6446C94.6386 63.1694 93.1138 64.6942 91.4438 66.0011C89.919 67.2355 88.249 68.1068 86.2886 68.3246C85.2721 68.4698 84.2556 68.6876 83.2391 68.615C82.876 68.4698 82.513 68.3246 82.0773 68.252C79.7539 67.7437 77.7208 66.582 75.833 65.2024C75.2521 64.7668 74.7439 64.1133 74.2356 63.605C72.856 62.3707 71.6217 60.9911 70.46 59.539C69.2982 58.1594 68.3543 56.7072 67.483 55.1824C67.1926 54.6742 66.9748 54.0207 66.3213 53.7303C65.3048 54.2385 64.2882 54.8194 63.2717 55.2551C62.3278 55.6907 61.3839 56.0538 60.44 56.4168C59.4961 56.7798 58.5522 57.2155 57.5357 57.5059C55.793 57.9416 54.1957 58.6677 52.4531 59.2485C51.4365 59.6116 50.3474 59.9746 49.3309 60.1924C48.3144 60.4103 47.3705 61.1363 46.2087 60.9185C45.3374 61.3542 44.3935 61.4994 43.4496 61.7172C43.0866 61.7898 42.7961 61.8624 42.4331 61.935C40.3274 62.1529 38.2218 62.5159 36.1162 62.7337C31.687 63.242 27.2579 63.4598 22.8288 63.0968C22.3932 63.0242 21.8849 63.1694 21.4492 63.1694C19.4162 63.1694 17.3832 62.879 15.3501 62.5885C12.8814 62.2981 10.4854 61.7898 8.16189 61.0637C6.20146 60.4829 4.24103 59.902 2.49843 58.6677C1.77234 58.1594 1.11886 57.5785 0.392778 57.0703C0.0297359 56.4894 -0.115481 55.9085 0.102345 55.1824C0.247562 55.1098 0.392779 55.0372 0.610605 54.9646C1.19147 55.3277 0.755821 55.9085 1.11886 56.3442C1.11886 56.3442 1.19147 56.4168 1.33669 56.4894C4.09581 58.232 7.14537 59.1759 10.3401 59.8294C12.8814 60.3377 15.4953 60.6281 18.0366 60.9911C19.5614 61.1363 21.0862 61.0637 22.611 61.0637C24.5714 61.0637 26.4592 61.0637 28.4197 60.9911C29.5814 60.9185 30.7431 60.7733 31.9049 60.7007C32.994 60.6281 34.0831 60.7733 35.1722 60.3377C36.7696 60.4103 38.2944 59.9746 39.8918 59.8294C42.6509 59.4664 45.41 58.8129 48.0965 58.0142C50.8557 57.2155 53.5422 56.1264 56.2287 55.2551C58.1165 54.6016 60.0043 53.9481 61.8196 53.1494C62.9087 52.6412 64.143 51.9877 65.3048 51.1164ZM97.0347 4.28391C97.1799 4.50173 97.1073 4.42912 97.0347 4.28391C95.8729 2.68652 94.3482 2.25087 92.5329 2.75912C91.8795 2.90434 91.226 3.12217 90.5725 3.41261C87.4503 4.93739 84.8364 7.18824 82.513 9.80215C82.0773 10.2378 81.7143 10.8187 81.8595 11.4721C82.0047 12.6339 81.7869 13.7956 81.7869 14.8847C81.7869 16.1917 81.6417 17.426 81.4965 18.733C81.2786 20.4756 80.7704 22.2182 80.2621 23.8882C79.9717 25.0499 79.3908 25.9938 78.8099 27.0104C78.3743 27.7365 77.7208 28.2447 77.1399 28.8256C76.4139 29.4791 75.4699 29.6243 74.526 29.479C74.3082 28.8982 73.5095 29.116 73.0013 28.3899C72.9286 28.1721 72.6382 27.6638 72.493 27.1556C72.3478 26.5747 72.3478 25.9212 72.3478 25.3404C72.3478 24.6869 72.2752 23.9608 72.493 23.3073C72.9286 22.073 73.0739 20.766 73.4369 19.5317C74.3808 16.4821 75.9782 13.7956 78.0112 11.3269C78.3743 10.8913 78.6647 10.3104 78.9552 9.94737C79.0278 8.13216 78.4469 6.67999 77.866 5.22782C77.6482 4.71956 77.2852 4.2839 76.9947 3.84825C76.6317 3.26738 76.0508 3.04956 75.4699 2.97695C75.0343 2.90434 74.6713 2.97695 74.2356 2.97695C73.5095 3.63043 72.6382 4.13869 72.0574 4.86478C70.9682 6.09912 70.0243 7.47868 69.3708 9.00346C69.0078 9.80215 68.5721 10.6008 68.2817 11.4721C67.7008 12.8517 67.12 14.2313 66.7569 15.7561C66.3213 17.5713 65.6678 19.3139 65.7404 21.2017C65.7404 21.2743 65.7404 21.3469 65.6678 21.4195C65.2321 23.5251 65.0143 25.6308 64.9417 27.7365C64.8691 30.7134 64.9417 33.6177 65.0143 36.5947C65.0143 38.7003 65.3774 40.806 65.813 42.839C66.2487 44.872 66.7569 46.9777 67.483 48.9381C67.6282 49.2286 67.8461 49.4464 68.0639 49.8094C69.6613 48.9381 71.1134 48.1394 72.5656 47.1955C74.0178 46.179 75.3973 45.0899 76.9221 44.0734C79.9717 41.9677 82.7308 39.4264 85.2721 36.8125C86.7243 35.2877 88.1038 33.6903 89.4108 32.0203C92.8234 27.8091 95.2921 23.0895 97.0347 18.0069C97.6155 16.2643 98.1238 14.4491 98.269 12.6339C98.4868 9.94737 98.5594 7.26085 97.0347 4.28391ZM79.2456 14.4491C78.3743 14.9574 78.0839 15.6108 77.7934 16.2643C77.1399 17.5713 76.5591 18.8782 76.0508 20.1852C75.2521 22.2182 74.9617 24.2512 75.1795 26.4295C75.1795 26.5747 75.3247 26.6473 75.4699 26.7925C76.4865 26.1391 77.2125 25.2678 77.5756 24.106C78.3017 21.8552 78.8099 19.4591 79.0278 17.1356C79.1004 16.7 79.0278 16.3369 79.0278 15.9013C79.0278 15.4656 79.173 15.1026 79.2456 14.4491Z" fill="#E8D2B3"/>
</svg>
