<svg width="86" height="91" viewBox="0 0 86 91" fill="none" xmlns="http://www.w3.org/2000/svg">
<g clip-path="url(#clip0)">
<path d="M49.152 67.4689C48.7034 67.5964 48.8315 68.1066 48.6393 68.4892C48.383 68.6167 47.9985 68.808 47.5499 68.9994C47.614 69.4457 47.678 69.9559 47.7421 70.4661C47.2935 71.2951 46.5886 71.5502 45.7555 71.6139C45.4351 72.0603 45.1147 72.4429 44.8584 72.7618C44.1534 73.0169 43.5126 73.0806 42.9999 72.8893C42.8718 72.8256 42.7436 72.7618 42.6795 72.698C42.4232 72.3792 42.2309 71.9966 41.9105 71.6139C42.1669 71.1675 42.3591 70.7849 42.6154 70.4023C42.5514 70.211 42.4873 70.0197 42.4232 69.8284C42.5514 69.5733 42.7436 69.2544 43.064 69.3182C43.4485 69.382 43.833 69.5095 44.2175 69.6371C44.5379 69.1907 44.8584 68.7443 45.1788 68.2979C45.1788 67.9153 45.1147 67.4689 45.7555 67.2776C45.8837 67.5326 46.0119 67.8515 46.14 68.1703C46.2682 68.1703 46.3964 68.1703 46.5245 68.1703C46.8449 67.724 47.1654 67.3413 47.4858 66.8312C48.0625 66.9587 48.5752 67.0225 49.0879 67.2138C49.0238 67.2138 49.0879 67.4051 49.152 67.4689C49.0879 67.4689 49.152 67.4689 49.152 67.4689Z" fill="#E8D2B3"/>
<path d="M42.295 29.5893C42.5514 28.8879 42.8077 28.1864 43.833 28.3777C44.0894 28.569 44.4098 28.8879 44.7302 29.1429C44.7302 29.4618 44.7943 29.6531 44.7943 29.972C45.4351 30.0357 46.0119 30.3546 46.3964 30.9285C46.845 30.9285 47.1654 30.9285 47.4217 30.9285C48.2548 31.3111 48.383 32.0764 48.7034 32.7778C48.5111 33.1605 48.3189 33.5431 48.1266 33.9257C48.1266 33.9895 48.1266 34.117 48.1907 34.2446C48.4471 34.6272 48.7675 35.0098 49.0238 35.3924C48.8316 35.7113 48.7034 35.9664 48.5752 36.2214C47.7421 36.2852 47.3576 35.7113 46.9731 35.1373C47.1654 34.8823 47.3576 34.6272 47.5499 34.3083C47.1654 34.2446 46.7809 34.2446 46.3323 34.1808C46.076 33.9895 45.8196 33.7344 45.5633 33.5431C45.4351 33.0329 45.371 32.5865 45.307 32.1401C45.0506 31.9488 44.7943 31.7575 44.538 31.63C44.4739 31.3749 44.3457 31.1198 44.2175 30.7372C43.9612 30.801 43.6408 30.801 43.3845 30.8647C42.8077 30.5459 42.4873 30.1633 42.295 29.5893Z" fill="#E8D2B3"/>
<path d="M53.5097 68.234C53.5097 67.979 53.4456 67.8514 53.5097 67.6601C53.5097 67.405 53.5738 67.2137 53.6378 66.9586C54.0864 66.6398 54.7914 66.7673 54.9836 66.0021C54.7914 65.747 54.5991 65.4282 54.2787 65.0455C54.4709 64.4716 54.6632 63.8339 54.8554 63.3237C55.3681 63.1324 55.4322 63.5151 55.6244 63.7064C55.8167 63.8339 56.073 63.8977 56.2653 64.0252C56.6498 64.3441 57.0343 64.089 57.4829 64.089C57.3547 64.3441 57.2906 64.5354 57.2265 64.7267C57.6751 65.2368 57.9314 64.5991 58.38 64.5991C58.7004 64.6629 58.8927 64.8542 58.8927 65.3006C58.7645 65.4282 58.6364 65.5557 58.4441 65.747C58.4441 66.0021 58.4441 66.2572 58.5082 66.5123C58.6364 66.6398 58.7645 66.7036 58.9568 66.8311C58.8286 66.8949 58.7645 66.9586 58.7004 67.0224C57.9955 67.2137 57.4188 66.9586 56.7139 66.8311C56.3294 66.9586 55.8808 67.0862 55.4963 67.5326C55.8167 67.7877 56.1371 68.0427 56.3294 68.234C56.5216 68.7442 56.4575 69.1268 56.073 69.5094C55.8167 69.5094 55.4963 69.5094 55.2399 69.5094C55.2399 69.3181 55.304 69.1268 55.304 68.9993C54.6632 68.8717 54.0224 68.808 53.5097 68.234Z" fill="#E8D2B3"/>
<path d="M9.61246 37.1142C9.86879 37.4968 10.061 37.9432 10.3174 38.3896C10.3174 39.1548 10.3174 39.1548 9.86879 40.1114C9.54838 40.3027 9.22796 40.494 8.84346 40.6853C7.88221 40.2389 6.92096 39.9838 6.15195 39.091C6.02379 38.5171 5.89562 37.8156 5.70337 36.9866C5.9597 36.6678 6.21604 36.2852 6.53645 35.9663C6.98504 35.9663 7.30546 35.9663 7.75404 35.9663C8.07446 36.2852 8.39487 36.604 8.77937 36.9229C8.90754 37.0504 9.09979 37.0504 9.29204 37.0504C9.35613 37.0504 9.48429 37.1142 9.61246 37.1142Z" fill="#E8D2B3"/>
<path d="M31.6571 39.8563C31.3367 40.3027 31.0804 40.6215 30.8881 40.8766C29.991 41.2592 29.6705 40.494 29.1579 40.2389C29.0938 39.9201 29.0297 39.665 28.9656 39.4099C28.5811 39.1548 28.1325 38.836 27.684 38.5809C27.684 38.262 27.684 38.0707 27.6199 37.7519C27.8121 37.4968 28.0685 37.2417 28.2607 36.9229C28.453 36.604 28.6452 36.2852 28.8375 35.9663C29.286 35.9025 29.7987 35.775 30.3114 35.6475C30.5677 35.8388 30.824 36.0939 31.0163 36.2214C31.0804 36.4127 31.1445 36.4127 31.1445 36.4765C31.0804 37.6881 31.529 38.7722 31.6571 39.8563Z" fill="#E8D2B3"/>
<path d="M51.6512 56.6279C52.3561 56.5004 53.061 56.5004 53.7659 57.1381C53.83 57.4569 53.9582 57.8396 54.0223 58.2222C54.4068 58.4773 54.9194 58.1584 55.1758 58.6686C55.1758 59.0512 54.7913 59.0512 54.599 59.1787C54.3427 59.37 54.1504 59.5613 53.9582 59.7527C53.6378 59.7527 53.3173 59.6889 53.061 59.7527C52.5483 59.8164 52.0357 60.0077 51.4589 59.8164C51.1385 59.7527 50.6899 60.0077 50.1773 60.1353C49.985 60.0077 49.7928 59.8164 49.6005 59.6251C49.6005 59.4338 49.5364 59.2425 49.6005 59.1787C50.3695 58.541 50.4336 57.1381 51.6512 56.6279Z" fill="#E8D2B3"/>
<path d="M62.7376 65.0456C62.5454 64.5992 62.6736 64.2166 63.1221 63.834C63.5066 63.834 63.9552 63.834 64.4679 63.834C64.6601 64.1528 64.8524 64.4717 64.9806 64.7905C65.1087 64.7905 65.2369 64.8543 65.301 64.7905C65.6855 64.3441 66.07 63.8977 66.4545 63.5151C67.0953 63.3238 67.4157 63.5151 67.5439 64.089C67.4798 64.2166 67.4798 64.4079 67.4157 64.4079C67.0312 64.5992 66.5826 64.7267 66.1981 64.8543C66.0059 65.3644 66.4545 65.492 66.7108 65.7471C66.5186 66.0021 66.3263 66.321 66.1981 66.5761C66.1341 67.0862 66.7108 67.15 66.7749 67.3413C67.0953 68.0428 66.9031 68.4892 66.1981 68.7443C66.07 68.6805 65.7496 68.6167 65.6214 68.4254C65.301 67.979 65.1087 67.4689 64.8524 66.9587C64.4038 66.9587 63.9552 66.9587 63.5066 66.9587C63.2503 66.1297 64.4679 66.1934 64.2116 65.4282C63.6989 65.6195 63.1862 65.5557 62.7376 65.0456Z" fill="#E8D2B3"/>
<path d="M40.3725 36.1577C40.3725 36.5403 40.3725 36.7954 40.3725 37.3693C40.1803 37.5606 39.8599 37.8157 39.6035 38.0708C38.7704 38.0708 38.0655 38.0708 37.1683 38.0708C36.9761 37.8795 36.7838 37.6244 36.5916 37.4331C36.5916 37.178 36.5275 37.0504 36.5916 36.9867C36.8479 36.349 37.0402 35.775 37.2965 35.2011C37.7451 34.946 38.1296 34.6909 38.5782 34.4996C38.7704 34.6272 39.0268 34.6272 39.0909 34.7547C39.4754 35.1373 39.8599 35.5837 40.3725 36.1577Z" fill="#E8D2B3"/>
<path d="M22.3009 48.8479C22.7495 48.9754 23.134 49.103 23.4545 49.2305C23.7749 49.0392 24.0953 48.8479 24.4157 48.6566C25.0565 48.7204 25.1206 49.103 25.3129 49.4856C25.377 50.0595 24.9925 50.3146 24.5439 50.761C24.2875 50.6972 24.0312 50.6972 23.6467 50.6335C23.7108 50.9523 23.7749 51.2712 23.839 51.6538C23.5185 51.8451 23.134 52.0364 22.7495 52.2277C22.4291 52.0364 22.1087 51.8451 21.7883 51.6538C21.8524 51.3349 21.9164 51.0161 21.9164 50.6972C21.7242 50.5059 21.5319 50.2508 21.3397 49.9958C21.4038 49.7407 21.4679 49.4856 21.5319 49.1667C21.2115 48.9117 20.6989 48.6566 21.0834 48.0827C21.2756 47.8276 21.596 47.8276 21.9164 47.9551C22.365 48.0827 22.4291 48.4015 22.3009 48.8479Z" fill="#E8D2B3"/>
<path d="M49.0879 67.4688C49.4083 67.405 49.7928 67.3413 50.1132 67.2775C50.1773 66.8311 49.985 66.6398 49.7287 66.5123C49.4724 66.576 49.2801 66.6398 48.9597 66.7673C48.8956 66.576 48.8315 66.3847 48.7675 66.2572C49.0238 65.8108 49.4083 66.0659 49.8569 65.9383C50.1132 65.747 50.3695 65.5557 50.6259 65.3644C51.0745 65.2369 51.459 65.1731 51.8435 65.4282C52.0998 66.8311 52.0998 66.8311 52.9329 67.7877C52.292 68.9993 51.9716 69.1906 50.8822 68.7442C50.4977 68.6167 50.1773 68.6167 49.8569 68.4891C49.6005 68.4254 49.3442 68.1703 49.0879 68.0427C49.152 67.7877 49.152 67.6601 49.0879 67.4688Z" fill="#E8D2B3"/>
<path d="M49.3442 75.0575C49.216 74.8662 49.0238 74.7387 48.8956 74.6111C49.0238 73.9096 49.6005 74.0372 50.0491 73.9096C49.985 73.3357 49.985 72.7618 49.921 72.2516C50.2414 71.6777 50.4977 71.1675 50.8181 70.5298C51.5231 70.0834 52.0998 70.7211 52.6766 70.9762C52.7406 71.4226 52.4202 71.4864 52.0998 71.6777C51.9716 72.1241 51.8435 72.5705 51.6512 73.0169C51.7794 73.2082 51.8435 73.3995 51.9716 73.6546C51.9076 74.101 51.5231 74.356 51.2667 74.6749C50.6259 74.7387 50.0491 74.8662 49.3442 75.0575Z" fill="#E8D2B3"/>
<path d="M37.617 21.1717C37.3606 21.2992 37.0402 21.363 36.7839 21.4905C36.7198 21.8731 36.6557 22.192 36.5916 22.6384C36.3353 22.7659 36.079 22.9572 35.8226 23.1485C35.5663 23.021 35.2459 22.8935 35.0536 22.8297C34.6691 22.3833 34.7332 21.5543 35.1177 21.1079C35.1818 21.0441 35.3099 20.9166 35.374 20.8528C35.5022 20.789 35.6304 20.7253 35.6945 20.7253C35.9508 20.7253 36.143 20.789 36.3353 20.8528C36.7839 20.4064 37.2325 19.96 37.7451 19.5774C38.1937 19.1948 38.7064 19.1948 39.3472 19.3861C39.7317 19.8963 39.6035 20.4702 39.4113 21.0441C38.8986 21.6181 38.2578 21.363 37.617 21.1717Z" fill="#E8D2B3"/>
<path d="M55.9448 51.5263C56.3293 51.0799 56.6497 50.761 56.9702 50.4422C57.4187 50.4422 57.8673 50.3784 58.2518 50.3784C58.4441 50.506 58.5722 50.5697 58.6363 50.6335C59.0849 51.2712 59.5335 51.9089 59.9821 52.5466C60.1102 53.1843 59.7257 53.5669 59.149 53.8858C59.0208 53.8858 58.8927 53.9495 58.8286 53.8858C57.9314 53.1205 56.9702 52.4191 55.9448 51.5263Z" fill="#E8D2B3"/>
<path d="M43.3844 63.8977C43.1921 63.1963 43.2562 62.4948 43.6407 61.9209C44.5379 61.4745 45.2428 61.7295 45.9477 62.1122C46.2682 63.1325 46.2682 63.1325 46.0118 64.2804C45.7555 64.4717 45.4992 64.663 45.1787 64.9181C44.4097 64.8543 43.7689 64.5992 43.3844 63.8977Z" fill="#E8D2B3"/>
<path d="M47.6781 54.1409C47.9344 53.8858 48.1908 53.6307 48.5112 53.3757C48.8316 53.3757 49.2161 53.3119 49.5365 53.3119C50.3696 53.6307 50.6259 54.2684 50.8823 55.0975C50.8182 55.2888 50.69 55.6076 50.5619 55.8627C50.4337 56.054 50.3055 56.2453 50.1774 56.4366C49.9851 56.5004 49.921 56.5642 49.7928 56.5642C49.2802 56.5004 48.7675 56.3729 48.383 56.3091C47.8063 55.6076 47.5499 55.0337 47.6781 54.1409Z" fill="#E8D2B3"/>
<path d="M74.1445 73.6546C74.5931 74.6749 74.0163 75.1213 73.76 75.6952C73.4396 75.8227 73.1832 76.014 72.9269 76.1416C71.9656 76.014 71.2607 75.5677 71.0044 74.4836C71.3248 73.9096 71.5811 73.3357 71.9016 72.698C72.6706 73.0168 73.4396 73.3357 74.1445 73.6546Z" fill="#E8D2B3"/>
<path d="M62.6736 84.8143C62.7377 84.2404 62.994 83.8578 63.5707 83.5389C64.2116 83.5389 64.9165 83.5389 65.6214 83.5389C66.1341 83.7303 66.3263 84.0491 66.2623 84.6868C66.0059 85.0057 65.6214 85.3883 65.2369 85.8347C64.8524 85.9622 64.4679 86.0897 64.0834 86.2811C63.8271 86.1535 63.5067 86.026 63.1862 85.8984C62.994 85.5158 62.8018 85.1332 62.6736 84.8143Z" fill="#E8D2B3"/>
<path d="M33.0029 63.8977C33.2593 64.2166 33.5156 64.5354 33.7719 64.8543C33.7719 65.2369 33.7719 65.492 33.7719 65.8108C33.5797 66.0659 33.3233 66.3848 33.1311 66.6398C32.4262 66.7036 31.7853 66.8949 31.1445 66.2572C31.0163 65.8746 30.8241 65.3644 30.6959 64.9818C30.76 64.4079 31.0804 64.089 31.4649 63.8977C31.7853 63.7064 32.298 63.7702 33.0029 63.8977Z" fill="#E8D2B3"/>
<path d="M41.1415 1.78556C41.1415 1.02032 41.526 0.573931 41.9746 0.0637702C42.2309 0.0637702 42.6154 0 42.9999 0C43.3203 0.318851 43.7048 0.637702 43.9612 0.892782C43.9612 2.55081 43.9612 2.61458 42.4872 3.12474C41.7182 2.9972 41.3337 2.42327 41.1415 1.78556Z" fill="#E8D2B3"/>
<path d="M82.8599 70.5298C83.0521 69.7007 83.5648 69.2543 84.462 68.9993C84.6542 69.063 84.9105 69.1268 85.1669 69.2543C85.4232 69.3819 85.6795 69.5732 85.8718 69.7645C86.1922 70.8486 85.6795 71.4863 84.9105 71.9965C83.8852 71.9327 83.1162 71.6776 82.8599 70.5298Z" fill="#E8D2B3"/>
<path d="M12.2398 20.4702C11.9194 19.7688 11.8553 19.2586 12.0476 18.7484C12.5603 17.9832 13.3293 18.1745 14.0342 18.1745C14.2905 18.4934 14.5468 18.7484 14.7391 19.0035C14.7391 19.4499 14.7391 19.8325 14.7391 20.3427C14.3546 20.5978 13.9701 20.8529 13.5856 21.1079C13.0729 20.8529 12.6243 20.6616 12.2398 20.4702Z" fill="#E8D2B3"/>
<path d="M19.6095 34.8823C20.1222 35.4563 20.0581 35.9664 19.8658 36.4766C19.6095 36.6679 19.3532 36.8592 19.0968 37.1143C19.3532 38.3259 19.3532 38.3259 18.9687 39.5375C18.3278 39.41 18.0715 38.8361 17.4948 38.581C17.4948 38.1346 17.5588 37.752 17.5588 37.3694C17.8793 37.1143 18.1997 36.923 18.5201 36.7317C18.3919 36.4128 18.3278 36.0302 18.1997 35.6476C18.3278 35.4563 18.456 35.2012 18.6483 34.8823C18.9046 34.8823 19.225 34.8823 19.6095 34.8823Z" fill="#E8D2B3"/>
<path d="M48.5752 85.8346C48.0625 86.5999 48.0625 86.5999 47.2295 86.6636C46.6527 86.4723 46.7168 85.8984 46.5245 85.5158C46.3964 85.5158 46.2682 85.452 46.2041 85.452C45.6915 85.6433 45.2429 85.5795 44.9225 85.1332C44.6661 84.623 44.7302 84.2404 45.2429 83.9215C45.9478 83.5389 46.3323 84.0491 46.7809 84.4954C46.9731 84.4317 47.2295 84.3679 47.4217 84.3041C48.1266 84.5592 48.5111 85.0694 48.5752 85.8346Z" fill="#E8D2B3"/>
<path d="M4.54988 44.2565C4.29354 44.958 3.78087 45.3406 2.94779 45.5319C2.30695 45.3406 1.7302 45.0218 1.3457 44.3203C1.53795 43.8101 1.66612 43.2362 2.24287 42.8536C2.37104 42.8536 2.56329 42.7898 2.81962 42.7898C3.07596 42.7898 3.26821 42.8536 3.46046 42.8536C4.22946 43.1724 4.42171 43.6826 4.54988 44.2565Z" fill="#E8D2B3"/>
<path d="M47.4858 45.0855C46.9731 45.4043 46.3323 45.7869 45.8196 46.1058C44.538 45.9783 44.538 45.9782 44.4739 44.7666C44.9865 44.384 45.5633 43.9376 46.14 43.4912C46.5245 43.555 46.9091 43.555 47.2936 43.6188C47.6781 44.0651 47.8062 44.5115 47.4858 45.0855Z" fill="#E8D2B3"/>
<path d="M40.2443 53.0568C40.6929 53.3756 41.0133 53.7582 41.0133 54.2684C41.0133 54.3322 41.0133 54.3959 40.9492 54.4597C40.9492 54.5235 40.8851 54.5872 40.8851 54.651C40.5006 55.1612 40.052 55.6713 39.6675 56.2453C39.4112 56.1177 39.219 55.9902 39.0267 55.9264C38.8985 55.2887 38.7704 54.651 38.5781 53.9495C38.7704 53.6945 38.9626 53.3756 39.1549 53.1205C39.6035 53.0568 39.988 53.0568 40.2443 53.0568Z" fill="#E8D2B3"/>
<path d="M18.7764 32.3952C18.9046 32.5866 19.0328 32.7141 19.0969 32.9054C18.9046 33.5431 18.9046 33.5431 18.3279 33.9257C17.6229 33.862 17.5589 33.0967 17.1103 32.6503C16.7899 32.9692 16.5976 33.2243 16.4054 33.4156C15.9568 33.4156 15.8286 33.0967 15.7004 32.8416C15.8927 32.5866 16.0849 32.3952 16.2131 32.1402C16.3413 31.9489 16.3413 31.6938 16.4054 31.4387C16.5335 31.1836 16.7899 30.9923 17.0462 30.9285C17.5589 30.9285 17.7511 31.2474 18.0074 31.63C18.0074 31.7575 17.9434 32.0764 18.0074 32.2039C18.1356 32.2677 18.3919 32.2677 18.7764 32.3952Z" fill="#E8D2B3"/>
<path d="M39.1549 57.6482C39.4753 57.967 39.7317 58.2859 39.988 58.541C40.1162 59.4338 39.5394 59.8164 38.8986 60.199C38.5141 60.0077 38.1296 59.8802 37.8092 59.7526C37.4887 59.1787 37.1683 58.6685 36.8479 58.2221C36.912 58.0946 36.9761 58.0308 37.0402 57.9033C37.3606 57.6482 37.681 58.0946 38.0655 57.8395C38.3218 57.6482 38.7704 57.712 39.1549 57.6482Z" fill="#E8D2B3"/>
<path d="M22.1728 53.4394C22.0446 54.1409 21.7883 54.396 21.1474 54.4597C20.3143 54.2046 19.9939 53.5669 19.9298 52.7379C19.6735 52.6742 19.4172 52.6104 19.0968 52.5466C18.8404 52.2915 18.8404 52.0365 18.9686 51.6538C19.2249 51.7814 19.5453 51.9089 19.8017 52.0365C19.9939 51.8451 20.1221 51.7176 20.3143 51.4625C20.6348 51.5263 20.8911 51.5901 21.0833 51.6538C21.4678 52.3553 21.7883 52.8655 22.1728 53.4394Z" fill="#E8D2B3"/>
<path d="M56.5856 58.541C56.842 58.6686 57.0983 58.7323 57.4187 58.8599C57.5469 59.5613 57.7392 60.2628 57.8673 60.9005C57.2906 61.7295 57.2906 61.7295 56.2011 61.4744C56.0089 60.9005 55.8807 60.2628 55.6885 59.6251C56.0089 58.9874 56.0089 58.9874 56.5856 58.541Z" fill="#E8D2B3"/>
<path d="M61.5842 58.9874C61.9687 58.6686 62.4173 58.4135 63.0581 58.4772C63.6989 58.7323 63.763 59.37 64.0193 59.944C63.8912 60.2628 63.6989 60.5179 63.5708 60.8367C62.8658 61.0918 62.225 61.0918 61.7124 60.5817C61.456 60.0077 61.3278 59.4976 61.5842 58.9874Z" fill="#E8D2B3"/>
<path d="M46.5887 19.5775C45.8197 19.2586 45.8197 19.2586 45.2429 18.6209C45.0507 18.047 45.307 17.6006 45.7556 17.0904C46.076 17.0904 46.4605 17.0266 46.7168 17.0904C47.2295 17.2817 47.614 17.6643 47.614 18.302C47.5499 18.9398 47.1654 19.2586 46.5887 19.5775Z" fill="#E8D2B3"/>
<path d="M65.8778 71.4225C66.07 71.6776 66.3264 71.9965 66.5186 72.1878C66.5186 72.5704 66.2623 72.7617 65.9419 72.8255C65.4292 72.953 64.9165 73.0168 64.2757 73.1443C64.1475 73.0806 63.8912 72.8892 63.6989 72.6979C63.5067 72.5066 63.3144 72.2515 63.0581 71.9965C63.1222 71.7414 63.1863 71.4863 63.3144 71.1675C63.763 71.1037 64.1475 71.1037 64.5961 71.0399C64.9165 71.2312 65.1729 71.4225 65.4933 71.6138C65.6855 71.5501 65.8137 71.4863 66.0059 71.4225C65.9419 71.4863 65.8778 71.4225 65.8778 71.4225Z" fill="#E8D2B3"/>
<path d="M36.3352 84.049C36.5275 83.7302 36.6556 83.4113 36.8479 83.0925C37.3605 83.0925 37.8091 83.0287 38.3218 83.0287C38.6422 83.4113 38.9626 83.7939 39.283 84.1766C38.8985 84.5592 38.5781 84.9418 38.3859 85.1969C37.2965 85.5157 36.7838 85.0056 36.3352 84.049Z" fill="#E8D2B3"/>
<path d="M27.0432 65.492C26.7868 65.3644 26.5305 65.2369 26.2101 65.1093C26.2101 64.5992 26.2101 64.1528 26.2101 63.7064C26.7868 63.3876 27.2995 63.1325 28.0685 63.1962C28.2608 63.4513 28.5171 63.7064 28.7734 63.9615C28.453 64.8543 27.8763 65.3644 27.0432 65.492Z" fill="#E8D2B3"/>
<path d="M9.61251 37.1142C9.48434 37.1142 9.35617 37.0504 9.22801 37.0504C9.09984 36.7316 8.97167 36.3489 8.90759 36.0301C8.84351 35.7112 8.84351 35.3286 8.84351 34.8185C8.90759 34.6909 9.03576 34.4358 9.09984 34.2445C9.54842 34.0532 9.80476 34.0532 10.0611 34.3083C10.4456 34.7547 10.7019 35.3286 10.8942 35.9663C10.7019 36.2852 10.5097 36.6678 10.2533 36.9866C10.1252 37.178 9.86884 37.2417 9.61251 37.1142Z" fill="#E8D2B3"/>
<path d="M32.4261 76.0778C32.6184 75.8865 32.7466 75.759 33.0029 75.6314C32.9388 75.3763 32.8747 74.9937 32.8106 74.6111C33.067 74.356 33.3233 74.0372 33.5156 73.8459C34.1564 73.7821 34.4127 74.1009 34.605 74.6111C34.5409 74.8024 34.4768 75.0575 34.3486 75.3763C34.4127 75.6314 34.5409 75.8865 34.605 76.0778C34.4127 76.7793 34.0282 77.0344 33.2592 76.9068C33.0029 76.6517 32.7466 76.3329 32.4261 76.0778Z" fill="#E8D2B3"/>
<path d="M31.9135 51.2074C31.9135 52.1002 31.9135 52.1002 31.1445 52.8017C30.76 52.7379 30.3755 52.6104 30.0551 52.5466C29.4142 52.1002 29.3501 51.5263 29.4783 50.8248C29.7346 50.6973 30.0551 50.5697 30.3755 50.3784C30.9522 50.6973 31.4649 50.9524 31.9135 51.2074Z" fill="#E8D2B3"/>
<path d="M10.8301 51.4625C10.8941 52.2277 10.7019 52.7379 9.8688 52.993C9.61247 52.8654 9.29205 52.7379 8.97163 52.6103C8.7153 52.4828 8.39488 52.419 8.07446 52.3553C8.07446 52.0364 8.07446 51.7813 8.07446 51.4625C8.77938 51.2712 9.35613 51.0799 10.1251 50.8885C10.3174 51.0161 10.5737 51.2712 10.8301 51.4625Z" fill="#E8D2B3"/>
<path d="M29.3501 74.8661C29.7987 75.2487 29.9909 75.3762 30.2472 75.5676C30.824 75.5038 31.4648 75.5038 31.7852 76.0777C31.9134 76.3328 31.9134 76.6517 31.9775 76.9067C31.4007 77.4807 30.824 77.9271 29.9909 77.2256C29.7987 76.7154 29.7346 76.014 29.2219 75.5676C29.0937 75.5676 29.2219 75.3125 29.3501 74.8661Z" fill="#E8D2B3"/>
<path d="M31.529 71.4225C31.1445 71.2312 30.8882 71.0399 30.5677 70.8486C30.5677 70.4022 30.5677 70.0196 30.5677 69.5094C30.8882 69.3181 31.2086 69.1268 31.4649 68.9993C32.1058 69.1268 32.4903 69.3819 32.6184 69.8921C32.8107 70.5935 32.3621 71.0399 31.529 71.4225Z" fill="#E8D2B3"/>
<path d="M42.9999 20.3426C42.9999 19.8325 42.9999 19.5774 42.9999 19.2585C42.9999 19.131 43.064 19.0035 43.064 18.9397C43.7048 18.302 43.7048 18.302 44.6661 18.7484C44.6661 19.0035 44.7301 19.2585 44.6661 19.5774C44.5379 20.0238 44.2816 20.4702 44.0893 20.8528C44.1534 20.9803 44.1534 21.1079 44.2816 21.2992C44.2175 21.363 44.0893 21.4905 43.9611 21.618C43.1921 21.4267 43.3844 20.7253 42.9999 20.3426Z" fill="#E8D2B3"/>
<path d="M30.3756 49.2943C30.1833 48.6566 29.9911 48.2102 29.7988 47.7638C30.0552 47.6363 30.3115 47.5725 30.5678 47.4449C31.0805 47.8913 31.5291 48.3377 32.1058 48.8479C32.3622 48.9117 32.6826 49.0392 33.003 49.1667C33.003 49.4856 33.003 49.6769 33.003 49.8682C32.7467 50.1871 32.4262 50.2508 32.1699 50.1233C31.8495 49.9957 31.5932 49.7407 31.2727 49.6131C31.0164 49.4218 30.7601 49.4218 30.3756 49.2943Z" fill="#E8D2B3"/>
<path d="M16.7257 49.2306C17.3025 49.2944 17.751 49.3581 18.0074 49.4219C18.5841 49.9321 18.5841 50.4422 18.456 50.9524C18.0715 51.4626 17.5588 51.5263 17.0461 51.4626C16.5335 51.2075 16.2771 50.8249 16.3412 50.3147C16.2771 49.9958 16.5335 49.677 16.7257 49.2306Z" fill="#E8D2B3"/>
<path d="M4.99847 61.4744C5.31889 61.2831 5.51114 61.0918 5.70339 60.9642C6.34422 61.028 6.66464 61.4106 6.79281 61.857C6.92098 62.3672 6.92098 62.9411 6.34422 63.3875C6.02381 63.3875 5.63931 63.3875 5.25481 63.3875C4.80622 62.8136 4.99847 62.1759 4.99847 61.4744Z" fill="#E8D2B3"/>
<path d="M23.1981 81.3708C23.3263 82.3273 23.07 82.965 22.1087 83.3476C21.8524 83.2839 21.532 83.1563 21.1475 82.965C21.0834 82.5824 21.0193 82.1998 20.9552 81.7534C21.4038 81.4345 21.8524 81.1794 22.365 80.8606C22.6855 81.0519 23.0059 81.2432 23.1981 81.3708Z" fill="#E8D2B3"/>
<path d="M2.30694 48.4653C2.0506 48.7842 1.85835 48.9755 1.73019 49.1668C1.02527 49.4857 0.512602 49.1668 0.0640176 48.7204C-6.59078e-05 48.019 -6.59227e-05 48.019 0.512602 47.1899C0.833019 47.1899 1.15344 47.1899 1.53794 47.1899C1.98652 47.445 2.11469 47.8914 2.30694 48.4653Z" fill="#E8D2B3"/>
<path d="M43.3845 58.6685C43.3204 58.2221 43.2563 57.9671 43.2563 57.712C43.4486 57.138 43.8331 56.883 44.4099 56.6917C44.6662 56.8192 44.9866 56.9467 45.2429 57.0743C45.5634 57.5844 45.6274 58.0946 45.1789 58.541C44.6662 58.9874 44.0894 58.8598 43.3845 58.6685Z" fill="#E8D2B3"/>
<path d="M42.3591 84.623C42.6795 85.1331 42.9358 85.5157 42.8077 86.0897C42.5513 86.281 42.2309 86.4723 41.8464 86.7274C41.0774 86.2172 40.5647 85.707 40.8211 84.8143C41.2697 84.2403 41.7823 84.4316 42.3591 84.623Z" fill="#E8D2B3"/>
<path d="M13.9701 49.8045C13.7138 50.2509 13.5856 50.6335 13.3934 50.9524C13.073 51.0161 13.073 51.0161 12.6885 49.9958C12.6885 49.6132 13.1371 49.6132 13.3293 49.3581C13.3934 49.1668 13.3934 48.9117 13.4575 48.5929C13.7138 48.4016 14.0342 48.1465 14.4187 47.8276C14.6751 47.9552 14.9314 48.1465 15.1236 48.2103C15.1236 49.4857 15.1236 49.4857 13.9701 49.8045Z" fill="#E8D2B3"/>
<path d="M23.9672 23.3399C23.5827 24.2327 23.5827 24.2327 22.6214 24.2964C22.4933 24.1689 22.3651 23.9776 22.1088 23.7225C22.301 23.4037 22.4933 23.021 22.8137 22.6384C22.8137 22.3833 22.8137 22.0645 22.8778 21.7456C23.2623 21.2993 23.3904 21.363 23.9672 21.937C23.9031 22.192 23.7749 22.4471 23.6468 22.7022C23.7749 22.8297 23.9031 23.0848 23.9672 23.3399Z" fill="#E8D2B3"/>
<path d="M40.2443 72.6342C40.5006 72.8256 40.757 73.0806 41.0774 73.3357C40.9492 73.6546 40.8851 73.9097 40.757 74.2285C40.2443 74.6749 39.7316 74.8662 39.0908 74.2923C39.0267 74.101 38.9626 73.9734 38.9626 73.7821C38.9626 73.527 39.0267 73.3357 39.0267 73.1444C39.1549 72.698 39.5394 72.5067 40.2443 72.6342Z" fill="#E8D2B3"/>
<path d="M25.6974 25.3805C26.0178 25.7631 26.2742 26.0182 26.5305 26.4008C26.4023 26.5921 26.3383 26.8472 26.2101 26.9747C25.8897 27.2298 25.5052 27.3574 25.0566 27.5487C24.8003 27.4211 24.608 27.3574 24.4158 27.2298C24.1594 26.5921 24.1594 26.0182 24.8003 25.508C24.9925 25.4443 25.3129 25.4443 25.6974 25.3805Z" fill="#E8D2B3"/>
<path d="M59.149 44.8304C58.7004 44.7029 58.3159 44.5754 57.8673 44.4478C57.7391 44.129 57.675 43.8101 57.5469 43.4275C58.0595 43.1724 58.444 42.9811 58.8926 42.7898C59.149 42.9811 59.4053 43.1724 59.5975 43.3C59.7898 43.8739 59.8539 44.3841 59.149 44.8304Z" fill="#E8D2B3"/>
<path d="M9.7406 46.5522C9.7406 46.2334 9.7406 45.9783 9.7406 45.7232C10.9582 44.8942 10.9582 44.8942 11.7272 45.5319C11.599 46.0421 11.5349 46.5522 11.4068 47.0624C10.8941 46.9348 10.3174 47.3175 9.7406 46.5522Z" fill="#E8D2B3"/>
<path d="M60.6228 51.8451C59.9179 50.8885 59.9179 50.761 60.4946 49.4856C60.6228 49.4218 60.6869 49.3581 60.8151 49.3581C61.0073 49.2943 61.1355 49.3581 61.3277 49.3581C61.7763 49.6131 61.9686 49.932 61.8404 50.5059C61.4559 50.8885 61.0714 51.3349 60.6228 51.8451Z" fill="#E8D2B3"/>
<path d="M63.5067 74.6748C63.9553 74.4198 64.3398 73.782 65.0447 74.0371C65.4933 74.356 65.5573 74.8024 65.4292 75.3763C65.2369 75.5038 65.0447 75.6952 64.7883 75.7589C64.2757 75.8865 63.8912 75.5039 63.5708 75.1212C63.3785 75.1212 63.1222 75.0575 62.8658 75.0575C62.8018 74.9299 62.7377 74.8024 62.7377 74.6111C62.9299 74.2922 63.1863 74.5473 63.5067 74.6748Z" fill="#E8D2B3"/>
<path d="M78.2459 62.6223C77.9255 62.8774 77.541 63.1962 77.1565 63.5151C76.772 63.26 76.4515 63.0687 76.1952 62.8774C76.067 62.2397 76.3234 61.8571 76.6438 61.4744C76.772 61.4744 76.9642 61.3469 77.1565 61.4107C77.7973 61.4744 78.1818 61.8571 78.2459 62.6223Z" fill="#E8D2B3"/>
<path d="M35.3099 8.7365C35.0536 9.05535 34.8614 9.24666 34.6691 9.43797C34.3487 9.43797 34.0283 9.43797 33.6438 9.43797C33.4515 9.18289 33.1952 8.92781 33.0029 8.60896C33.1952 8.29011 33.3874 7.97126 33.5797 7.6524C33.9642 7.6524 34.3487 7.6524 34.7332 7.6524C34.8614 7.90749 35.0536 8.22634 35.3099 8.7365Z" fill="#E8D2B3"/>
<path d="M23.903 37.2418C23.903 37.6244 23.903 38.007 23.903 38.3259C23.5826 38.7085 23.3263 38.8998 22.7495 38.7085C22.5573 38.4534 22.3009 38.1346 22.1728 37.7519C22.0446 37.3693 22.0446 36.9229 22.5573 36.6678C23.0699 36.6678 23.4544 36.9229 23.903 37.2418Z" fill="#E8D2B3"/>
<path d="M47.6781 65.3006C47.4217 65.2369 47.2295 65.1731 46.9732 65.0456C46.9091 63.9615 47.4217 63.3238 48.2548 62.8136C48.5112 62.9411 48.7034 63.0049 48.9597 63.1324C49.0238 63.3238 49.0238 63.4513 49.0879 63.5788C49.0238 64.089 48.6393 64.1528 48.383 64.4079C48.1267 64.7267 47.9344 64.9818 47.6781 65.3006Z" fill="#E8D2B3"/>
<path d="M13.5856 29.9082C13.5215 30.0995 13.3933 30.3546 13.2652 30.6097C13.0729 30.7372 12.8166 30.8647 12.4962 31.056C12.2398 30.9285 11.9835 30.801 11.6631 30.6734C11.599 30.3546 11.5349 30.0357 11.4708 29.5256C11.6631 29.3342 11.8553 29.1429 11.9194 29.0792C12.8807 28.9516 13.3292 29.2705 13.5856 29.9082Z" fill="#E8D2B3"/>
<path d="M41.2697 24.8066C41.4619 24.7428 41.5901 24.6791 41.7182 24.6153C42.1668 24.8704 42.6154 25.1255 43.1922 25.4443C43.2562 25.6356 43.3203 25.8907 43.3203 26.082C43.2562 26.5922 42.8717 26.8473 42.4232 26.7835C42.0387 26.7835 41.526 26.3371 41.6542 25.9545C41.7823 25.5081 41.3337 25.253 41.2697 24.8066Z" fill="#E8D2B3"/>
<path d="M7.94629 48.7842C7.94629 48.274 7.94629 47.8914 7.94629 47.5088C8.45896 47.0624 8.97162 47.0624 9.48429 47.3175C9.80471 47.6363 9.86879 48.1465 9.67654 48.4654C9.42021 48.9755 9.09979 49.0393 7.94629 48.7842Z" fill="#E8D2B3"/>
<path d="M51.7152 62.9411C51.587 62.7498 51.4589 62.5585 51.3948 62.431C51.4589 61.8571 51.7152 61.602 52.356 61.5382C52.8046 61.8571 53.3173 62.2397 53.7659 62.5585C53.894 62.9411 53.7018 63.1325 53.3814 63.3238C52.8687 63.26 52.2919 63.1325 51.7152 62.9411Z" fill="#E8D2B3"/>
<path d="M42.8077 77.2894C43 77.7358 43.1281 78.1184 43.2563 78.4373C42.6796 78.8199 42.2951 78.5648 41.8465 78.3735C41.3979 78.3735 41.0134 79.1388 40.3726 78.4373C40.4366 78.3098 40.5007 78.0547 40.5648 77.7996C41.2056 77.6721 41.9106 77.4807 42.8077 77.2894Z" fill="#E8D2B3"/>
<path d="M13.8419 51.335C14.0983 50.8248 14.4828 50.5698 14.9954 50.506C15.444 50.6335 15.444 51.0161 15.6363 51.335C15.8285 51.5263 16.213 51.5901 16.213 52.1002C16.1489 52.164 16.0208 52.3553 15.8285 52.6104C15.3158 52.2915 14.8673 51.9089 14.2264 51.8452C14.1623 51.7814 13.9701 51.4625 13.8419 51.335Z" fill="#E8D2B3"/>
<path d="M19.9939 38.5809C20.827 38.3896 20.827 38.3896 21.4678 38.5171C21.7882 38.8997 21.7241 39.2824 21.5319 39.7287C21.3396 39.8563 21.0833 39.9838 20.827 40.1114C20.5706 39.9838 20.3143 39.7925 19.9939 39.665C19.9939 39.3461 19.9939 39.0273 19.9939 38.5809Z" fill="#E8D2B3"/>
<path d="M18.456 43.2362C18.0074 43.0449 17.5588 42.8536 17.1743 42.6623C17.1102 42.4072 17.1102 42.2159 17.1102 42.0884C17.3025 41.642 17.6229 41.3869 18.0715 41.3231C18.5201 41.4507 18.7764 41.7695 18.8405 42.2159C18.9046 42.5347 18.9046 42.8536 18.456 43.2362Z" fill="#E8D2B3"/>
<path d="M22.301 73.9734C22.9418 74.2922 23.4545 74.5473 23.5826 75.1213C23.3904 75.6952 23.0059 75.8227 22.3651 75.759C22.1087 75.5676 21.8524 75.3126 21.4679 74.9937C21.7242 74.6111 21.9806 74.356 22.301 73.9734Z" fill="#E8D2B3"/>
<path d="M34.2846 50.4421C34.7332 50.6972 34.9895 51.0161 34.7332 51.7175C34.5409 51.8451 34.2205 52.0364 33.9642 52.1639C33.4515 52.1639 33.2593 51.9089 33.067 51.59C33.2593 50.5697 33.2593 50.5697 34.2846 50.4421Z" fill="#E8D2B3"/>
<path d="M21.7883 44.1289C21.5961 44.5753 21.4038 44.8942 21.2757 45.1492C20.1863 45.4681 20.1863 45.4681 19.6736 44.5753C20.1222 43.6825 20.1222 43.6825 21.7883 44.1289Z" fill="#E8D2B3"/>
<path d="M64.3397 69.5732C64.0193 69.637 63.8271 69.7008 63.5707 69.7008C63.3144 69.7008 63.1221 69.637 62.8658 69.637C62.5454 68.9993 62.5454 68.9993 62.8017 68.2341C63.1221 68.2341 63.4426 68.1703 63.6989 68.1703C64.2756 68.4254 64.4679 68.8718 64.3397 69.5732Z" fill="#E8D2B3"/>
<path d="M43.833 75.3126C43.9611 75.0575 44.0893 74.8024 44.2175 74.5473C44.7942 74.2285 45.1787 74.4836 45.4991 75.0575C45.4351 75.2488 45.4351 75.4401 45.371 75.759C44.6661 75.8228 43.9611 75.8865 43.2562 75.9503C43.1921 75.9503 43.128 75.759 43.064 75.6314C43.1921 75.5677 43.3844 75.5039 43.5126 75.4401C43.5766 75.3764 43.7048 75.3126 43.833 75.3126Z" fill="#E8D2B3"/>
<path d="M37.1042 28.3777C37.4247 28.3777 37.5528 28.3139 37.681 28.3777C37.8092 28.4415 37.9373 28.569 38.1937 28.7603C38.1296 29.0154 38.0655 29.2705 37.9373 29.7169C38.0014 29.9082 38.0014 30.227 38.0655 30.5459C37.6169 30.9923 37.2965 30.9285 36.912 30.4821C36.9761 30.1633 37.0402 29.8444 37.1042 29.5256C37.1042 29.2067 37.1042 28.8879 37.1042 28.3777Z" fill="#E8D2B3"/>
<path d="M60.3025 29.0792C60.4948 29.4618 60.5589 29.7169 60.7511 30.0358C60.4307 30.3546 60.1744 30.6097 59.854 30.8648C59.5976 30.7372 59.4054 30.7372 59.2772 30.6097C59.149 30.4822 59.0209 30.3546 58.9568 30.2271C59.149 29.143 59.149 29.143 60.3025 29.0792Z" fill="#E8D2B3"/>
<path d="M23.1981 17.473C23.3263 17.2817 23.3904 17.1541 23.4545 17.0904C23.6467 17.1541 23.903 17.2179 24.1594 17.2817C24.5439 17.0904 24.8643 16.899 25.2488 17.2179C25.5051 17.5368 25.441 17.9194 25.2488 18.3658C25.0565 18.4295 24.8002 18.4933 24.5439 18.6208C24.0953 18.1745 23.7108 17.8556 23.1981 17.473Z" fill="#E8D2B3"/>
<path d="M31.2086 42.7898C30.8241 42.726 30.3114 42.726 29.8628 42.5985C29.5424 42.5347 29.4142 42.2158 29.5424 41.8332C30.1192 41.5781 30.76 41.897 31.4008 41.7057C31.5931 41.897 31.7212 42.0245 31.7853 42.1521C31.8494 42.5347 31.5931 42.6622 31.2086 42.7898Z" fill="#E8D2B3"/>
<path d="M51.3948 9.11913C51.3948 8.16257 51.4589 8.0988 52.5483 8.03503C52.6764 8.22634 52.8687 8.41765 53.061 8.73651C52.8687 8.99159 52.8046 9.1829 52.6124 9.31044C52.2279 9.62929 51.7793 9.56552 51.3948 9.11913Z" fill="#E8D2B3"/>
<path d="M5.31889 26.7835C5.12664 27.4212 4.67805 27.6762 4.16539 27.4849C3.65272 27.2936 3.46047 26.8472 3.65272 26.3371C4.61397 26.0182 4.61397 26.0182 5.31889 26.7835Z" fill="#E8D2B3"/>
<path d="M31.1445 18.302C30.6318 18.2382 30.4396 17.9194 30.2473 17.473C30.3114 17.3455 30.3114 17.1542 30.4396 17.0266C30.5677 16.8991 30.6959 16.7715 30.8241 16.7078C31.3367 16.644 31.6571 16.8353 31.9135 17.2179C31.9135 17.8556 31.5931 18.1107 31.1445 18.302Z" fill="#E8D2B3"/>
<path d="M23.9031 57.5206C23.9672 58.0308 23.9031 58.2859 23.2622 58.3496C23.07 58.2221 22.8777 58.0308 22.6855 57.7757C22.301 57.9033 21.9806 57.8395 21.7242 57.3931C21.7883 57.2018 21.9165 56.9467 22.0447 56.7554C22.2369 56.7554 22.4292 56.6916 22.4292 56.7554C22.7496 57.3293 23.4545 57.2656 23.9031 57.5206Z" fill="#E8D2B3"/>
<path d="M40.1804 61.9208C39.8599 61.2831 40.1163 60.9005 40.693 60.6454C41.0134 60.7729 41.3979 60.9642 41.7824 61.1555C41.7184 61.4106 41.6543 61.5382 41.5902 61.6657C41.2698 62.1121 40.7571 62.1121 40.1804 61.9208Z" fill="#E8D2B3"/>
<path d="M35.0536 59.1787C34.7972 58.541 34.6691 58.0308 34.4768 57.5206C34.605 57.3293 34.7972 57.138 34.9895 56.8829C35.374 57.138 35.6303 57.3293 35.8866 57.4569C35.8866 57.6482 35.374 58.796 35.0536 59.1787Z" fill="#E8D2B3"/>
<path d="M46.5886 28.2502C46.3322 28.2502 46.0759 28.2502 45.8196 28.2502C45.4351 27.8676 45.4351 27.4849 45.5632 27.1023C45.9477 26.7197 46.3322 26.7197 46.7808 26.9748C47.0372 27.4212 47.0371 27.8038 46.5886 28.2502Z" fill="#E8D2B3"/>
<path d="M52.292 54.0134C52.0356 53.8221 51.9075 53.6945 51.7152 53.567C51.8434 53.2481 51.9075 52.993 51.9715 52.738C52.4842 52.6104 52.9969 52.4829 53.5095 52.3553C53.6377 52.4829 53.7018 52.5467 53.7659 52.6742C53.1891 53.0568 53.125 53.8221 52.292 54.0134Z" fill="#E8D2B3"/>
<path d="M26.2742 42.2796C26.5946 41.8332 26.915 41.5781 27.4277 41.9607C27.4277 42.3433 27.4918 42.7897 27.5558 43.3637C27.2995 43.4274 27.0432 43.4912 26.7228 43.555C26.5946 43.1086 26.4664 42.726 26.2742 42.2796Z" fill="#E8D2B3"/>
<path d="M48.6392 13.7106C48.9597 13.9019 49.216 14.0294 49.4723 14.157C49.4723 14.412 49.5364 14.5396 49.4723 14.7309C49.3442 15.1773 49.3442 15.1773 48.7033 15.5599C47.8062 14.7309 47.8062 14.6671 48.6392 13.7106Z" fill="#E8D2B3"/>
<path d="M38.45 56.3091C38.2577 56.6917 38.1296 56.9468 38.0655 57.1381C37.4246 57.4569 37.0401 57.2018 36.7197 56.6279C36.8479 56.3728 37.0401 56.1178 37.1683 55.8627C37.7451 55.7351 38.1296 55.8627 38.45 56.3091Z" fill="#E8D2B3"/>
<path d="M77.541 79.4576C78.5022 80.0316 78.5663 80.3504 77.7332 81.1794C77.4769 81.0519 77.1565 80.9244 76.9001 80.7968C76.772 80.0953 76.9001 79.7127 77.541 79.4576Z" fill="#E8D2B3"/>
<path d="M43.7689 46.3609C43.5767 46.4884 43.3204 46.5522 43.1281 46.6797C42.295 45.9782 42.295 45.7869 43.1281 45.0854C44.0253 45.5318 44.0253 45.5318 43.7689 46.3609Z" fill="#E8D2B3"/>
<path d="M57.9314 74.1009C58.1877 73.4632 58.4441 74.0372 58.8927 73.9096C59.0849 73.8459 59.4694 73.7821 59.918 73.6545C60.0462 73.9734 60.1102 74.2285 60.2384 74.5473C60.0462 74.7386 59.8539 74.8662 59.6617 75.0575C59.0208 74.7386 58.5081 74.4198 57.9314 74.1009Z" fill="#E8D2B3"/>
<path d="M49.7287 23.6588C49.985 23.8501 50.3054 23.9776 50.4977 24.1051C50.6899 24.7428 50.3695 24.9979 49.985 25.3168C49.7287 25.1892 49.4723 25.1255 49.216 24.9979C48.9597 24.424 49.0237 23.9776 49.7287 23.6588Z" fill="#E8D2B3"/>
<path d="M28.2607 20.0238C28.0685 19.8963 27.8762 19.8325 27.748 19.7688C27.748 19.5775 27.748 19.5137 27.748 19.5137C28.453 19.3861 28.3248 18.2383 29.1579 18.2383C29.5424 18.4296 29.4783 18.7484 29.4783 19.1311C29.0938 19.3861 28.6452 19.705 28.2607 20.0238Z" fill="#E8D2B3"/>
<path d="M15.8926 38.8998C16.3412 38.9636 16.5335 39.1549 16.5975 39.6013C16.2771 39.7926 15.9567 39.9201 15.6363 40.0476C15.38 40.1752 15.2518 40.494 14.8032 40.4303C14.675 40.3027 14.5469 40.1114 14.4187 39.8563C14.9955 39.4737 15.444 39.1549 15.8926 38.8998Z" fill="#E8D2B3"/>
<path d="M33.4515 53.8221C33.3233 54.3322 33.067 54.5235 32.4902 54.2684C32.3621 53.8858 32.2339 53.5032 32.1698 53.1206C32.298 52.6742 32.4902 52.5467 32.9388 52.6742C33.067 53.0568 33.2592 53.4394 33.4515 53.8221Z" fill="#E8D2B3"/>
<path d="M13.3933 59.3701C13.3933 58.9237 13.3933 58.6048 13.3933 58.3497C13.8419 57.9033 14.2264 58.0946 14.675 58.7323C14.3546 59.4338 14.3546 59.4338 13.3933 59.3701Z" fill="#E8D2B3"/>
<path d="M53.9582 87.4288C53.5737 87.4288 53.3174 87.4926 52.9328 87.4926C52.8688 87.1737 52.7406 86.9187 52.6765 86.5998C52.9969 86.4085 53.2533 86.2172 53.6378 86.0259C53.83 86.3447 54.0864 86.536 54.1504 86.7911C54.2145 86.9187 54.0223 87.1738 53.9582 87.4288Z" fill="#E8D2B3"/>
<path d="M68.6974 67.5964C69.146 67.4051 69.4023 67.2776 69.6586 67.15C70.2354 67.4051 70.4917 67.724 70.1713 68.2979C69.8509 68.6167 69.5305 68.553 69.0819 68.4254C68.9537 68.2979 68.8256 68.0428 68.6974 67.5964Z" fill="#E8D2B3"/>
<path d="M38.9627 69.2544C38.1296 69.0631 38.1296 68.4892 38.0015 67.9153C38.1296 67.7877 38.3219 67.5964 38.4501 67.4689C39.4113 68.1703 39.4113 68.2979 38.9627 69.2544Z" fill="#E8D2B3"/>
<path d="M61.456 70.0834C61.1996 70.5936 60.8151 70.8487 60.3025 70.5936C59.918 70.2747 59.9821 69.9559 60.1102 69.5095C60.3666 69.4457 60.6229 69.3182 60.8151 69.2544C61.1996 69.5095 61.456 69.7646 61.456 70.0834Z" fill="#E8D2B3"/>
<path d="M65.9419 71.4864C66.006 71.1675 66.006 70.9125 66.0701 70.6574C66.9672 70.211 66.9672 70.211 67.6721 70.9762C67.4158 71.2313 67.2236 71.4864 66.9031 71.7415C66.5186 71.6139 66.1982 71.5502 65.8778 71.4864H65.9419Z" fill="#E8D2B3"/>
<path d="M33.5797 71.8052C33.4515 71.6139 33.2593 71.4226 33.0029 71.1038C33.1952 70.7849 33.3874 70.5936 33.5156 70.4023C34.1564 70.211 34.5409 70.4023 34.7332 70.9762C34.5409 71.4226 34.2205 71.8052 33.5797 71.8052Z" fill="#E8D2B3"/>
<path d="M50.4337 32.2677C50.1773 32.0126 49.9851 31.7575 49.8569 31.63C49.7928 31.1836 49.9851 30.8647 50.2414 30.801C50.4977 30.7372 50.8182 30.801 51.0745 30.8647C51.2027 31.6937 51.2027 31.6937 50.4337 32.2677Z" fill="#E8D2B3"/>
<path d="M47.0372 37.178C47.7421 36.9867 47.7421 36.9867 48.3189 37.2418C48.4471 37.7519 48.2548 38.0708 47.7421 38.3259C47.5499 38.2621 47.2936 38.1345 47.0372 38.007C47.0372 37.7519 47.0372 37.4968 47.0372 37.178Z" fill="#E8D2B3"/>
<path d="M28.2607 73.0806C28.3889 73.5907 28.5811 74.0371 28.7093 74.5473C28.517 74.7386 28.3248 74.8661 28.1325 74.9937C27.6839 74.9937 27.4276 74.8661 27.2994 74.356C27.4276 74.2284 27.5558 74.1009 27.6839 73.9096C27.9403 73.6545 27.5558 73.1443 28.2607 73.0806Z" fill="#E8D2B3"/>
<path d="M63.6347 45.5319C62.9298 45.8508 62.6094 45.5957 62.3531 45.0856C62.289 44.6392 62.5453 44.4479 62.9298 44.3203C63.5066 44.3841 63.6988 44.7029 63.6347 45.5319Z" fill="#E8D2B3"/>
<path d="M35.4381 24.6152C35.374 24.3602 35.374 24.2964 35.3099 24.1051C35.8226 23.85 36.2071 23.4036 36.9761 23.6587C37.0402 23.9138 37.0402 24.1688 37.1043 24.3602C36.5916 24.8703 36.0149 24.5515 35.4381 24.6152Z" fill="#E8D2B3"/>
<path d="M54.9835 80.6055C54.7272 80.8606 54.535 80.9881 54.2786 81.2432C54.0223 81.1157 53.83 80.9881 53.7019 80.8606C53.4455 80.5418 53.4455 80.2229 53.766 79.904C54.3427 79.649 54.6631 79.904 54.9835 80.6055Z" fill="#E8D2B3"/>
<path d="M23.3904 26.4008C22.8137 27.0385 22.4292 27.4211 22.1087 27.8038C21.2757 27.3574 21.2757 27.3574 21.6602 26.5284C22.1087 26.5284 22.5573 26.4646 23.3904 26.4008Z" fill="#E8D2B3"/>
<path d="M29.991 29.7806C30.1192 29.972 30.3115 30.1633 30.5678 30.4821C30.3115 30.7372 30.1192 30.9923 29.991 31.1198C29.4784 31.2474 29.158 31.056 29.0298 30.6734C29.0298 30.0995 29.2861 29.7806 29.991 29.7806Z" fill="#E8D2B3"/>
<path d="M11.599 39.6651C11.9194 39.6013 12.1117 39.5375 12.368 39.4738C12.5603 39.6651 12.8166 39.8564 13.0729 40.1115C12.8166 40.4303 12.6243 40.6854 12.4321 40.8767C11.599 40.6216 11.599 40.6216 11.599 39.6651Z" fill="#E8D2B3"/>
<path d="M29.1578 86.5361C29.9909 86.2172 29.9909 86.2172 30.5036 87.11C30.3754 87.3013 30.1832 87.4926 29.9909 87.684C29.0938 87.5564 29.0938 87.4926 29.1578 86.5361Z" fill="#E8D2B3"/>
<path d="M30.696 90.8725C30.0551 91.0638 30.0551 91.0638 29.5425 90.7449C29.5425 90.6174 29.4784 90.4261 29.4784 90.171C29.7347 90.0435 30.0551 89.8521 30.3115 89.7246C30.7601 89.9797 30.9523 90.2985 30.696 90.8725Z" fill="#E8D2B3"/>
</g>
<defs>
<clipPath id="clip0">
<rect width="86" height="91" fill="white"/>
</clipPath>
</defs>
</svg>
