<svg width="30" height="24" viewBox="0 0 30 24" fill="none" xmlns="http://www.w3.org/2000/svg">
<path d="M28.8777 1.12432C27.3826 -0.376282 24.9562 -0.376282 23.4611 1.12432L9.92183 14.7214L6.53457 11.3246C5.03948 9.82396 2.613 9.82396 1.11791 11.3246C-0.377193 12.8252 -0.377193 15.2618 1.11791 16.7624L7.21105 22.8807C8.70614 24.3813 11.1326 24.3813 12.6277 22.8807L28.8777 6.57185C30.3728 5.0616 30.3728 2.62975 28.8777 1.12432ZM27.5248 5.20635C27.5248 5.20635 11.5297 21.2643 11.2748 21.52C10.5297 22.2727 9.31399 22.2727 8.56889 21.52C8.56889 21.52 2.43653 15.3632 2.41693 15.3439C1.72575 14.5912 1.74536 13.4138 2.47085 12.6852C3.21595 11.9325 4.43163 11.9325 5.17673 12.6852L9.91693 17.4428L24.8189 2.485C25.564 1.73228 26.7797 1.73228 27.5248 2.485C28.2699 3.23771 28.2699 4.45363 27.5248 5.20635Z" fill="#E8D2B3"/>
</svg>
